G04 Layer: TopSilkLayer*
G04 EasyEDA v6.4.20.6, 2021-07-27T21:22:35+10:00*
G04 5f3de9c6558747c6be1615df3866fddb,ebe80986956c49fa8a04bea1b3a7cd6c,10*
G04 Gerber Generator version 0.2*
G04 Scale: 100 percent, Rotated: No, Reflected: No *
G04 Dimensions in millimeters *
G04 leading zeros omitted , absolute positions ,4 integer and 5 decimal *
%FSLAX45Y45*%
%MOMM*%

%ADD11C,0.2540*%
%ADD18C,0.2032*%
%ADD19C,0.2032*%
%ADD20C,0.1524*%

%LPD*%
G36*
X-8595817Y-4997551D02*
G01*
X-8599982Y-4999990D01*
X-8626805Y-5028590D01*
X-8775954Y-5190998D01*
X-8834514Y-5254447D01*
X-8798407Y-5254447D01*
X-8798102Y-5253532D01*
X-8796731Y-5251450D01*
X-8789720Y-5243169D01*
X-8723731Y-5170779D01*
X-8629243Y-5068011D01*
X-8595258Y-5031486D01*
X-8589365Y-5025745D01*
X-8588248Y-5024882D01*
X-8585047Y-5026050D01*
X-8566607Y-5034483D01*
X-8432800Y-5097322D01*
X-8406333Y-5110022D01*
X-8406739Y-5110429D01*
X-8410752Y-5112207D01*
X-8595563Y-5180279D01*
X-8791346Y-5251958D01*
X-8797391Y-5254345D01*
X-8834514Y-5254447D01*
X-8850680Y-5272278D01*
X-8854998Y-5277408D01*
X-8857589Y-5281168D01*
X-8858250Y-5286095D01*
X-8858910Y-5309412D01*
X-8858859Y-5332222D01*
X-8858605Y-5346954D01*
X-8858148Y-5359298D01*
X-8857538Y-5367680D01*
X-8857132Y-5369864D01*
X-8855913Y-5373319D01*
X-8854186Y-5376011D01*
X-8851849Y-5378145D01*
X-8848598Y-5379974D01*
X-8843060Y-5383631D01*
X-8838996Y-5388356D01*
X-8836406Y-5393791D01*
X-8835390Y-5399582D01*
X-8835898Y-5405323D01*
X-8837980Y-5410708D01*
X-8841587Y-5415381D01*
X-8846820Y-5418886D01*
X-8851646Y-5421376D01*
X-8853424Y-5422798D01*
X-8854897Y-5424576D01*
X-8856014Y-5427014D01*
X-8856878Y-5430266D01*
X-8857488Y-5434584D01*
X-8858250Y-5447334D01*
X-8858767Y-5480812D01*
X-8832900Y-5480812D01*
X-8832900Y-5442000D01*
X-8825280Y-5433720D01*
X-8820658Y-5428183D01*
X-8816949Y-5422493D01*
X-8814054Y-5416702D01*
X-8812022Y-5410809D01*
X-8810802Y-5404916D01*
X-8810447Y-5399024D01*
X-8810955Y-5393182D01*
X-8812326Y-5387390D01*
X-8814511Y-5381701D01*
X-8817559Y-5376214D01*
X-8821420Y-5370880D01*
X-8826144Y-5365800D01*
X-8832900Y-5359349D01*
X-8832900Y-5293207D01*
X-8700719Y-5245404D01*
X-8603742Y-5209946D01*
X-8568842Y-5196992D01*
X-8394801Y-5133695D01*
X-8390128Y-5132171D01*
X-8386775Y-5131308D01*
X-8385302Y-5131155D01*
X-8384946Y-5132527D01*
X-8384438Y-5140096D01*
X-8384489Y-5153202D01*
X-8385302Y-5157774D01*
X-8387384Y-5160772D01*
X-8396122Y-5167884D01*
X-8399983Y-5172151D01*
X-8403031Y-5176621D01*
X-8405215Y-5181346D01*
X-8406638Y-5186222D01*
X-8407196Y-5191150D01*
X-8406942Y-5196179D01*
X-8405825Y-5201107D01*
X-8403945Y-5205984D01*
X-8401202Y-5210708D01*
X-8397595Y-5215280D01*
X-8393176Y-5219547D01*
X-8384692Y-5226862D01*
X-8385302Y-5346446D01*
X-8396732Y-5350205D01*
X-8417712Y-5358079D01*
X-8610142Y-5432958D01*
X-8630716Y-5441442D01*
X-8636711Y-5443016D01*
X-8648344Y-5447995D01*
X-8687104Y-5463184D01*
X-8696502Y-5454700D01*
X-8702141Y-5449925D01*
X-8706358Y-5447385D01*
X-8711184Y-5446420D01*
X-8718499Y-5446268D01*
X-8725662Y-5446420D01*
X-8730437Y-5447284D01*
X-8734399Y-5449366D01*
X-8739174Y-5453176D01*
X-8745423Y-5459628D01*
X-8750147Y-5466842D01*
X-8753144Y-5474512D01*
X-8754211Y-5482183D01*
X-8754414Y-5486146D01*
X-8755684Y-5488635D01*
X-8758936Y-5490616D01*
X-8777224Y-5497626D01*
X-8782761Y-5500014D01*
X-8830564Y-5518708D01*
X-8831173Y-5518556D01*
X-8831681Y-5517388D01*
X-8832392Y-5511444D01*
X-8832799Y-5499658D01*
X-8832900Y-5480812D01*
X-8858767Y-5480812D01*
X-8858961Y-5504535D01*
X-8858707Y-5522976D01*
X-8858250Y-5530088D01*
X-8857589Y-5535980D01*
X-8856675Y-5540654D01*
X-8855405Y-5544261D01*
X-8853779Y-5546902D01*
X-8851747Y-5548630D01*
X-8849258Y-5549493D01*
X-8846312Y-5549646D01*
X-8842806Y-5549138D01*
X-8838742Y-5548122D01*
X-8819134Y-5541111D01*
X-8792972Y-5531053D01*
X-8741816Y-5510580D01*
X-8735263Y-5507786D01*
X-8728811Y-5504129D01*
X-8725103Y-5500166D01*
X-8724036Y-5495645D01*
X-8725408Y-5490260D01*
X-8727897Y-5481980D01*
X-8727338Y-5475833D01*
X-8723884Y-5471922D01*
X-8717635Y-5470601D01*
X-8714740Y-5470804D01*
X-8712555Y-5471617D01*
X-8710930Y-5473090D01*
X-8709609Y-5475376D01*
X-8708085Y-5479440D01*
X-8707424Y-5482539D01*
X-8706358Y-5485384D01*
X-8703767Y-5488228D01*
X-8700312Y-5490362D01*
X-8696807Y-5491175D01*
X-8694267Y-5490768D01*
X-8683853Y-5487670D01*
X-8669223Y-5482640D01*
X-8654135Y-5477002D01*
X-8624824Y-5465368D01*
X-8474354Y-5407253D01*
X-8430158Y-5389727D01*
X-8413851Y-5383784D01*
X-8369808Y-5366004D01*
X-8364931Y-5363311D01*
X-8362442Y-5360517D01*
X-8361019Y-5356606D01*
X-8360511Y-5352440D01*
X-8359648Y-5332323D01*
X-8359190Y-5299862D01*
X-8359089Y-5210505D01*
X-8363305Y-5207558D01*
X-8368385Y-5204866D01*
X-8378698Y-5201412D01*
X-8380730Y-5199938D01*
X-8381390Y-5197449D01*
X-8381238Y-5193080D01*
X-8380526Y-5188254D01*
X-8378850Y-5185156D01*
X-8375396Y-5183022D01*
X-8366404Y-5179822D01*
X-8364016Y-5178094D01*
X-8362188Y-5175554D01*
X-8360918Y-5171846D01*
X-8360003Y-5166664D01*
X-8359495Y-5159654D01*
X-8359190Y-5150510D01*
X-8359241Y-5122468D01*
X-8359648Y-5112715D01*
X-8360664Y-5107533D01*
X-8362391Y-5104993D01*
X-8365591Y-5103012D01*
X-8382203Y-5094325D01*
X-8406790Y-5082082D01*
X-8432850Y-5069535D01*
X-8538260Y-5020106D01*
X-8569909Y-5005019D01*
X-8581288Y-4999990D01*
X-8589721Y-4997551D01*
G37*
G36*
X-8579205Y-5077612D02*
G01*
X-8586216Y-5078120D01*
X-8593175Y-5080304D01*
X-8598916Y-5083352D01*
X-8603792Y-5087061D01*
X-8607806Y-5091379D01*
X-8610904Y-5096154D01*
X-8613190Y-5101285D01*
X-8614511Y-5106670D01*
X-8614914Y-5112105D01*
X-8589467Y-5112105D01*
X-8589264Y-5108702D01*
X-8588806Y-5105908D01*
X-8588044Y-5103926D01*
X-8587079Y-5102910D01*
X-8582964Y-5101945D01*
X-8578697Y-5101996D01*
X-8574836Y-5103114D01*
X-8571941Y-5105095D01*
X-8569807Y-5109565D01*
X-8569858Y-5114645D01*
X-8571941Y-5119065D01*
X-8575649Y-5121554D01*
X-8577732Y-5121910D01*
X-8582609Y-5121859D01*
X-8584742Y-5121503D01*
X-8587232Y-5120640D01*
X-8588654Y-5119116D01*
X-8589314Y-5116474D01*
X-8589467Y-5112105D01*
X-8614918Y-5112156D01*
X-8614359Y-5117693D01*
X-8612835Y-5123180D01*
X-8610346Y-5128412D01*
X-8606840Y-5133390D01*
X-8602370Y-5137912D01*
X-8594496Y-5143550D01*
X-8586825Y-5146649D01*
X-8579053Y-5147360D01*
X-8570925Y-5145735D01*
X-8563457Y-5142128D01*
X-8556396Y-5136591D01*
X-8550452Y-5129885D01*
X-8546439Y-5122722D01*
X-8545017Y-5117236D01*
X-8544864Y-5111445D01*
X-8545830Y-5105603D01*
X-8547912Y-5099812D01*
X-8550960Y-5094274D01*
X-8554872Y-5089296D01*
X-8559596Y-5084978D01*
X-8565032Y-5081524D01*
X-8572195Y-5078730D01*
G37*
G36*
X-8568486Y-5227370D02*
G01*
X-8575141Y-5227523D01*
X-8580069Y-5228488D01*
X-8584996Y-5230825D01*
X-8589365Y-5233873D01*
X-8593175Y-5237530D01*
X-8596426Y-5241747D01*
X-8599017Y-5246319D01*
X-8600948Y-5251196D01*
X-8602218Y-5256326D01*
X-8602714Y-5261813D01*
X-8578189Y-5261813D01*
X-8578037Y-5259374D01*
X-8577529Y-5257038D01*
X-8576818Y-5255056D01*
X-8575954Y-5253736D01*
X-8572703Y-5252008D01*
X-8568385Y-5251602D01*
X-8563965Y-5252415D01*
X-8560562Y-5254447D01*
X-8557666Y-5259984D01*
X-8558479Y-5265724D01*
X-8562340Y-5270246D01*
X-8568588Y-5272074D01*
X-8572906Y-5271465D01*
X-8575903Y-5269636D01*
X-8577630Y-5266436D01*
X-8578189Y-5261813D01*
X-8602714Y-5261813D01*
X-8602522Y-5266690D01*
X-8601506Y-5271719D01*
X-8599678Y-5276596D01*
X-8596934Y-5281117D01*
X-8592718Y-5286095D01*
X-8587994Y-5290058D01*
X-8582914Y-5293055D01*
X-8577580Y-5295087D01*
X-8572042Y-5296103D01*
X-8566454Y-5296154D01*
X-8560917Y-5295239D01*
X-8555532Y-5293410D01*
X-8550402Y-5290566D01*
X-8545626Y-5286857D01*
X-8541258Y-5282184D01*
X-8537498Y-5276596D01*
X-8535212Y-5271617D01*
X-8533841Y-5266537D01*
X-8533434Y-5261406D01*
X-8533892Y-5256276D01*
X-8535314Y-5251196D01*
X-8537600Y-5246268D01*
X-8540750Y-5241544D01*
X-8544814Y-5237073D01*
X-8550757Y-5232298D01*
X-8553805Y-5230368D01*
X-8556345Y-5229148D01*
X-8561679Y-5227878D01*
G37*
G36*
X-8456625Y-5238851D02*
G01*
X-8461806Y-5239359D01*
X-8466531Y-5240324D01*
X-8470544Y-5241747D01*
X-8474049Y-5243779D01*
X-8477859Y-5246573D01*
X-8481771Y-5249926D01*
X-8485632Y-5253736D01*
X-8489238Y-5257749D01*
X-8492439Y-5261813D01*
X-8495030Y-5265724D01*
X-8496909Y-5269331D01*
X-8498484Y-5274005D01*
X-8499449Y-5278729D01*
X-8499805Y-5283555D01*
X-8499650Y-5286502D01*
X-8475218Y-5286502D01*
X-8474506Y-5280050D01*
X-8472424Y-5274411D01*
X-8469223Y-5269788D01*
X-8465058Y-5266283D01*
X-8460079Y-5263997D01*
X-8454542Y-5263032D01*
X-8448649Y-5263540D01*
X-8442502Y-5265623D01*
X-8437981Y-5268722D01*
X-8434578Y-5272938D01*
X-8432342Y-5277916D01*
X-8431326Y-5283301D01*
X-8431530Y-5288838D01*
X-8433003Y-5294122D01*
X-8435797Y-5298897D01*
X-8439861Y-5302758D01*
X-8445246Y-5304790D01*
X-8452662Y-5305704D01*
X-8460181Y-5305450D01*
X-8465972Y-5303875D01*
X-8469274Y-5300980D01*
X-8472271Y-5296509D01*
X-8474405Y-5291429D01*
X-8475218Y-5286502D01*
X-8499650Y-5286502D01*
X-8499551Y-5288381D01*
X-8498789Y-5293207D01*
X-8497468Y-5297932D01*
X-8495690Y-5302504D01*
X-8493455Y-5306923D01*
X-8490712Y-5311140D01*
X-8487613Y-5315051D01*
X-8484108Y-5318658D01*
X-8480247Y-5321909D01*
X-8476030Y-5324754D01*
X-8471509Y-5327142D01*
X-8466734Y-5329021D01*
X-8461705Y-5330342D01*
X-8454593Y-5331206D01*
X-8447633Y-5331002D01*
X-8440928Y-5329682D01*
X-8434527Y-5327294D01*
X-8428431Y-5323890D01*
X-8422843Y-5319471D01*
X-8417661Y-5314086D01*
X-8413089Y-5307787D01*
X-8410346Y-5302961D01*
X-8408720Y-5298490D01*
X-8407958Y-5293156D01*
X-8407806Y-5285689D01*
X-8408111Y-5278729D01*
X-8409178Y-5272430D01*
X-8410956Y-5266639D01*
X-8413546Y-5261356D01*
X-8417001Y-5256428D01*
X-8421370Y-5251805D01*
X-8426653Y-5247386D01*
X-8432952Y-5243118D01*
X-8436559Y-5241391D01*
X-8440978Y-5240121D01*
X-8445957Y-5239258D01*
X-8451291Y-5238851D01*
G37*
G36*
X-8763406Y-5285232D02*
G01*
X-8769299Y-5285435D01*
X-8775141Y-5286654D01*
X-8780830Y-5289042D01*
X-8783980Y-5291074D01*
X-8787384Y-5294020D01*
X-8790686Y-5297474D01*
X-8793480Y-5300980D01*
X-8795969Y-5305196D01*
X-8797747Y-5309565D01*
X-8798814Y-5313934D01*
X-8799242Y-5319166D01*
X-8774836Y-5319166D01*
X-8774226Y-5314848D01*
X-8772347Y-5311851D01*
X-8769146Y-5310124D01*
X-8764524Y-5309514D01*
X-8762085Y-5309717D01*
X-8759799Y-5310174D01*
X-8757818Y-5310936D01*
X-8756497Y-5311800D01*
X-8754567Y-5315305D01*
X-8754313Y-5319674D01*
X-8755634Y-5323992D01*
X-8758377Y-5327243D01*
X-8764371Y-5329732D01*
X-8769654Y-5328970D01*
X-8773414Y-5325313D01*
X-8774836Y-5319166D01*
X-8799242Y-5319166D01*
X-8799118Y-5322671D01*
X-8798356Y-5326938D01*
X-8797086Y-5331053D01*
X-8795359Y-5335016D01*
X-8793175Y-5338724D01*
X-8790533Y-5342128D01*
X-8787587Y-5345226D01*
X-8784285Y-5347970D01*
X-8780678Y-5350306D01*
X-8776868Y-5352135D01*
X-8772804Y-5353507D01*
X-8768588Y-5354269D01*
X-8764270Y-5354472D01*
X-8759850Y-5354015D01*
X-8755380Y-5352846D01*
X-8750909Y-5350916D01*
X-8746185Y-5348173D01*
X-8742070Y-5344972D01*
X-8738463Y-5341416D01*
X-8735466Y-5337505D01*
X-8733078Y-5333339D01*
X-8731300Y-5328920D01*
X-8730234Y-5324348D01*
X-8729878Y-5319572D01*
X-8730488Y-5313426D01*
X-8732113Y-5307736D01*
X-8734704Y-5302504D01*
X-8738108Y-5297779D01*
X-8742273Y-5293766D01*
X-8746947Y-5290413D01*
X-8752128Y-5287822D01*
X-8757666Y-5286095D01*
G37*
G36*
X-8644534Y-5319623D02*
G01*
X-8652459Y-5320842D01*
X-8656167Y-5322417D01*
X-8660231Y-5324957D01*
X-8664397Y-5328158D01*
X-8668562Y-5331968D01*
X-8672474Y-5336133D01*
X-8675979Y-5340502D01*
X-8678976Y-5344922D01*
X-8681161Y-5349189D01*
X-8682837Y-5353862D01*
X-8683904Y-5358587D01*
X-8684361Y-5363362D01*
X-8684321Y-5365242D01*
X-8658758Y-5365242D01*
X-8658555Y-5360060D01*
X-8657894Y-5356402D01*
X-8656624Y-5353659D01*
X-8654542Y-5351322D01*
X-8647176Y-5345988D01*
X-8640013Y-5343499D01*
X-8632850Y-5343804D01*
X-8625586Y-5346903D01*
X-8621572Y-5350357D01*
X-8618728Y-5354878D01*
X-8616950Y-5360111D01*
X-8616289Y-5365648D01*
X-8616746Y-5371185D01*
X-8618372Y-5376214D01*
X-8621115Y-5380482D01*
X-8625027Y-5383479D01*
X-8627821Y-5384596D01*
X-8631377Y-5385511D01*
X-8635339Y-5386120D01*
X-8639098Y-5386324D01*
X-8643670Y-5386070D01*
X-8647176Y-5385257D01*
X-8650173Y-5383580D01*
X-8653272Y-5380837D01*
X-8656116Y-5377637D01*
X-8657742Y-5374538D01*
X-8658555Y-5370677D01*
X-8658758Y-5365242D01*
X-8684321Y-5365242D01*
X-8684260Y-5368137D01*
X-8683599Y-5372862D01*
X-8682431Y-5377484D01*
X-8680754Y-5382056D01*
X-8678621Y-5386425D01*
X-8676030Y-5390591D01*
X-8672982Y-5394553D01*
X-8669528Y-5398211D01*
X-8665718Y-5401564D01*
X-8661501Y-5404561D01*
X-8656980Y-5407152D01*
X-8652103Y-5409285D01*
X-8646922Y-5410962D01*
X-8641283Y-5411978D01*
X-8635492Y-5412028D01*
X-8629751Y-5411216D01*
X-8624062Y-5409590D01*
X-8618575Y-5407202D01*
X-8613343Y-5404053D01*
X-8608415Y-5400294D01*
X-8603894Y-5395925D01*
X-8599932Y-5390997D01*
X-8596528Y-5385612D01*
X-8593785Y-5379770D01*
X-8591804Y-5373573D01*
X-8591092Y-5369204D01*
X-8590991Y-5364581D01*
X-8591550Y-5359857D01*
X-8592667Y-5355031D01*
X-8594344Y-5350256D01*
X-8596477Y-5345582D01*
X-8599119Y-5341061D01*
X-8602167Y-5336743D01*
X-8605570Y-5332780D01*
X-8609380Y-5329174D01*
X-8613444Y-5326024D01*
X-8617813Y-5323433D01*
X-8625128Y-5321096D01*
X-8634730Y-5319776D01*
G37*
D19*
X-7599989Y-7995013D02*
G01*
X-7599989Y-8188815D01*
X-7599989Y-7995013D02*
G01*
X-7526075Y-8188815D01*
X-7452161Y-7995013D02*
G01*
X-7526075Y-8188815D01*
X-7452161Y-7995013D02*
G01*
X-7452161Y-8188815D01*
X-7280457Y-8059529D02*
G01*
X-7280457Y-8188815D01*
X-7280457Y-8087215D02*
G01*
X-7298999Y-8068927D01*
X-7317287Y-8059529D01*
X-7344973Y-8059529D01*
X-7363515Y-8068927D01*
X-7382057Y-8087215D01*
X-7391201Y-8114901D01*
X-7391201Y-8133443D01*
X-7382057Y-8161129D01*
X-7363515Y-8179671D01*
X-7344973Y-8188815D01*
X-7317287Y-8188815D01*
X-7298999Y-8179671D01*
X-7280457Y-8161129D01*
X-7108499Y-7995013D02*
G01*
X-7108499Y-8188815D01*
X-7108499Y-8087215D02*
G01*
X-7127041Y-8068927D01*
X-7145583Y-8059529D01*
X-7173269Y-8059529D01*
X-7191811Y-8068927D01*
X-7210099Y-8087215D01*
X-7219497Y-8114901D01*
X-7219497Y-8133443D01*
X-7210099Y-8161129D01*
X-7191811Y-8179671D01*
X-7173269Y-8188815D01*
X-7145583Y-8188815D01*
X-7127041Y-8179671D01*
X-7108499Y-8161129D01*
X-7047539Y-8114901D02*
G01*
X-6936795Y-8114901D01*
X-6936795Y-8096613D01*
X-6945939Y-8078071D01*
X-6955337Y-8068927D01*
X-6973879Y-8059529D01*
X-7001565Y-8059529D01*
X-7019853Y-8068927D01*
X-7038395Y-8087215D01*
X-7047539Y-8114901D01*
X-7047539Y-8133443D01*
X-7038395Y-8161129D01*
X-7019853Y-8179671D01*
X-7001565Y-8188815D01*
X-6973879Y-8188815D01*
X-6955337Y-8179671D01*
X-6936795Y-8161129D01*
X-6733595Y-8059529D02*
G01*
X-6696765Y-8188815D01*
X-6659681Y-8059529D02*
G01*
X-6696765Y-8188815D01*
X-6659681Y-8059529D02*
G01*
X-6622851Y-8188815D01*
X-6585767Y-8059529D02*
G01*
X-6622851Y-8188815D01*
X-6524807Y-7995013D02*
G01*
X-6515663Y-8004157D01*
X-6506519Y-7995013D01*
X-6515663Y-7985615D01*
X-6524807Y-7995013D01*
X-6515663Y-8059529D02*
G01*
X-6515663Y-8188815D01*
X-6417619Y-7995013D02*
G01*
X-6417619Y-8151985D01*
X-6408475Y-8179671D01*
X-6389933Y-8188815D01*
X-6371645Y-8188815D01*
X-6445559Y-8059529D02*
G01*
X-6380789Y-8059529D01*
X-6310685Y-7995013D02*
G01*
X-6310685Y-8188815D01*
X-6310685Y-8096613D02*
G01*
X-6282999Y-8068927D01*
X-6264457Y-8059529D01*
X-6236771Y-8059529D01*
X-6218229Y-8068927D01*
X-6209085Y-8096613D01*
X-6209085Y-8188815D01*
X-5858057Y-8022699D02*
G01*
X-6005885Y-8105757D01*
X-5858057Y-8188815D01*
X-5778555Y-7995013D02*
G01*
X-5676955Y-7995013D01*
X-5732327Y-8068927D01*
X-5704641Y-8068927D01*
X-5686099Y-8078071D01*
X-5676955Y-8087215D01*
X-5667811Y-8114901D01*
X-5667811Y-8133443D01*
X-5676955Y-8161129D01*
X-5695497Y-8179671D01*
X-5723183Y-8188815D01*
X-5750869Y-8188815D01*
X-5778555Y-8179671D01*
X-5787699Y-8170527D01*
X-5797097Y-8151985D01*
X-5464611Y-8105757D02*
G01*
X-5298241Y-8105757D01*
X-4965755Y-8022699D02*
G01*
X-4984297Y-8004157D01*
X-5011983Y-7995013D01*
X-5048813Y-7995013D01*
X-5076499Y-8004157D01*
X-5095041Y-8022699D01*
X-5095041Y-8041241D01*
X-5085897Y-8059529D01*
X-5076499Y-8068927D01*
X-5058211Y-8078071D01*
X-5002839Y-8096613D01*
X-4984297Y-8105757D01*
X-4974899Y-8114901D01*
X-4965755Y-8133443D01*
X-4965755Y-8161129D01*
X-4984297Y-8179671D01*
X-5011983Y-8188815D01*
X-5048813Y-8188815D01*
X-5076499Y-8179671D01*
X-5095041Y-8161129D01*
X-4877109Y-7995013D02*
G01*
X-4877109Y-8151985D01*
X-4867965Y-8179671D01*
X-4849423Y-8188815D01*
X-4830881Y-8188815D01*
X-4904795Y-8059529D02*
G01*
X-4840279Y-8059529D01*
X-4769921Y-8114901D02*
G01*
X-4659177Y-8114901D01*
X-4659177Y-8096613D01*
X-4668321Y-8078071D01*
X-4677719Y-8068927D01*
X-4696007Y-8059529D01*
X-4723693Y-8059529D01*
X-4742235Y-8068927D01*
X-4760777Y-8087215D01*
X-4769921Y-8114901D01*
X-4769921Y-8133443D01*
X-4760777Y-8161129D01*
X-4742235Y-8179671D01*
X-4723693Y-8188815D01*
X-4696007Y-8188815D01*
X-4677719Y-8179671D01*
X-4659177Y-8161129D01*
X-4598217Y-8059529D02*
G01*
X-4542845Y-8188815D01*
X-4487219Y-8059529D02*
G01*
X-4542845Y-8188815D01*
X-4426259Y-8114901D02*
G01*
X-4315515Y-8114901D01*
X-4315515Y-8096613D01*
X-4324659Y-8078071D01*
X-4334057Y-8068927D01*
X-4352599Y-8059529D01*
X-4380285Y-8059529D01*
X-4398573Y-8068927D01*
X-4417115Y-8087215D01*
X-4426259Y-8114901D01*
X-4426259Y-8133443D01*
X-4417115Y-8161129D01*
X-4398573Y-8179671D01*
X-4380285Y-8188815D01*
X-4352599Y-8188815D01*
X-4334057Y-8179671D01*
X-4315515Y-8161129D01*
X-4001571Y-8059529D02*
G01*
X-4001571Y-8188815D01*
X-4001571Y-8087215D02*
G01*
X-4019859Y-8068927D01*
X-4038401Y-8059529D01*
X-4066087Y-8059529D01*
X-4084629Y-8068927D01*
X-4103171Y-8087215D01*
X-4112315Y-8114901D01*
X-4112315Y-8133443D01*
X-4103171Y-8161129D01*
X-4084629Y-8179671D01*
X-4066087Y-8188815D01*
X-4038401Y-8188815D01*
X-4019859Y-8179671D01*
X-4001571Y-8161129D01*
X-3940611Y-8059529D02*
G01*
X-3940611Y-8188815D01*
X-3940611Y-8096613D02*
G01*
X-3912925Y-8068927D01*
X-3894383Y-8059529D01*
X-3866697Y-8059529D01*
X-3848155Y-8068927D01*
X-3839011Y-8096613D01*
X-3839011Y-8188815D01*
X-3667053Y-7995013D02*
G01*
X-3667053Y-8188815D01*
X-3667053Y-8087215D02*
G01*
X-3685595Y-8068927D01*
X-3704137Y-8059529D01*
X-3731823Y-8059529D01*
X-3750365Y-8068927D01*
X-3768653Y-8087215D01*
X-3778051Y-8114901D01*
X-3778051Y-8133443D01*
X-3768653Y-8161129D01*
X-3750365Y-8179671D01*
X-3731823Y-8188815D01*
X-3704137Y-8188815D01*
X-3685595Y-8179671D01*
X-3667053Y-8161129D01*
X-3371651Y-7995013D02*
G01*
X-3371651Y-8142841D01*
X-3380795Y-8170527D01*
X-3389939Y-8179671D01*
X-3408481Y-8188815D01*
X-3427023Y-8188815D01*
X-3445565Y-8179671D01*
X-3454709Y-8170527D01*
X-3463853Y-8142841D01*
X-3463853Y-8124299D01*
X-3264463Y-8059529D02*
G01*
X-3283005Y-8068927D01*
X-3301293Y-8087215D01*
X-3310691Y-8114901D01*
X-3310691Y-8133443D01*
X-3301293Y-8161129D01*
X-3283005Y-8179671D01*
X-3264463Y-8188815D01*
X-3236777Y-8188815D01*
X-3218235Y-8179671D01*
X-3199693Y-8161129D01*
X-3190549Y-8133443D01*
X-3190549Y-8114901D01*
X-3199693Y-8087215D01*
X-3218235Y-8068927D01*
X-3236777Y-8059529D01*
X-3264463Y-8059529D01*
X-3027989Y-8087215D02*
G01*
X-3037133Y-8068927D01*
X-3064819Y-8059529D01*
X-3092759Y-8059529D01*
X-3120445Y-8068927D01*
X-3129589Y-8087215D01*
X-3120445Y-8105757D01*
X-3101903Y-8114901D01*
X-3055675Y-8124299D01*
X-3037133Y-8133443D01*
X-3027989Y-8151985D01*
X-3027989Y-8161129D01*
X-3037133Y-8179671D01*
X-3064819Y-8188815D01*
X-3092759Y-8188815D01*
X-3120445Y-8179671D01*
X-3129589Y-8161129D01*
X-2967029Y-7995013D02*
G01*
X-2967029Y-8188815D01*
X-2967029Y-8096613D02*
G01*
X-2939343Y-8068927D01*
X-2920801Y-8059529D01*
X-2893115Y-8059529D01*
X-2874573Y-8068927D01*
X-2865429Y-8096613D01*
X-2865429Y-8188815D01*
D20*
X-7505712Y-1066800D02*
G01*
X-7614678Y-1066800D01*
X-7505712Y-1066800D02*
G01*
X-7505712Y-1103121D01*
X-7510792Y-1118870D01*
X-7521206Y-1129029D01*
X-7531620Y-1134363D01*
X-7547368Y-1139444D01*
X-7573276Y-1139444D01*
X-7588770Y-1134363D01*
X-7599184Y-1129029D01*
X-7609598Y-1118870D01*
X-7614678Y-1103121D01*
X-7614678Y-1066800D01*
X-7526540Y-1173734D02*
G01*
X-7521206Y-1184147D01*
X-7505712Y-1199895D01*
X-7614678Y-1199895D01*
X-5562612Y-1066800D02*
G01*
X-5671578Y-1066800D01*
X-5562612Y-1066800D02*
G01*
X-5562612Y-1103121D01*
X-5567692Y-1118870D01*
X-5578106Y-1129029D01*
X-5588520Y-1134363D01*
X-5604268Y-1139444D01*
X-5630176Y-1139444D01*
X-5645670Y-1134363D01*
X-5656084Y-1129029D01*
X-5666498Y-1118870D01*
X-5671578Y-1103121D01*
X-5671578Y-1066800D01*
X-5588520Y-1179068D02*
G01*
X-5583440Y-1179068D01*
X-5573026Y-1184147D01*
X-5567692Y-1189481D01*
X-5562612Y-1199895D01*
X-5562612Y-1220470D01*
X-5567692Y-1230884D01*
X-5573026Y-1236218D01*
X-5583440Y-1241297D01*
X-5593854Y-1241297D01*
X-5604268Y-1236218D01*
X-5619762Y-1225804D01*
X-5671578Y-1173734D01*
X-5671578Y-1246631D01*
X-3606812Y-1066800D02*
G01*
X-3715778Y-1066800D01*
X-3606812Y-1066800D02*
G01*
X-3606812Y-1103121D01*
X-3611892Y-1118870D01*
X-3622306Y-1129029D01*
X-3632720Y-1134363D01*
X-3648468Y-1139444D01*
X-3674376Y-1139444D01*
X-3689870Y-1134363D01*
X-3700284Y-1129029D01*
X-3710698Y-1118870D01*
X-3715778Y-1103121D01*
X-3715778Y-1066800D01*
X-3606812Y-1184147D02*
G01*
X-3606812Y-1241297D01*
X-3648468Y-1210310D01*
X-3648468Y-1225804D01*
X-3653548Y-1236218D01*
X-3658628Y-1241297D01*
X-3674376Y-1246631D01*
X-3684790Y-1246631D01*
X-3700284Y-1241297D01*
X-3710698Y-1230884D01*
X-3715778Y-1215389D01*
X-3715778Y-1199895D01*
X-3710698Y-1184147D01*
X-3705618Y-1179068D01*
X-3695204Y-1173734D01*
X-1651012Y-1066800D02*
G01*
X-1759978Y-1066800D01*
X-1651012Y-1066800D02*
G01*
X-1651012Y-1103121D01*
X-1656092Y-1118870D01*
X-1666506Y-1129029D01*
X-1676920Y-1134363D01*
X-1692668Y-1139444D01*
X-1718576Y-1139444D01*
X-1734070Y-1134363D01*
X-1744484Y-1129029D01*
X-1754898Y-1118870D01*
X-1759978Y-1103121D01*
X-1759978Y-1066800D01*
X-1651012Y-1225804D02*
G01*
X-1723656Y-1173734D01*
X-1723656Y-1251712D01*
X-1651012Y-1225804D02*
G01*
X-1759978Y-1225804D01*
X-7505712Y-3022600D02*
G01*
X-7614678Y-3022600D01*
X-7505712Y-3022600D02*
G01*
X-7505712Y-3058921D01*
X-7510792Y-3074670D01*
X-7521206Y-3084829D01*
X-7531620Y-3090163D01*
X-7547368Y-3095244D01*
X-7573276Y-3095244D01*
X-7588770Y-3090163D01*
X-7599184Y-3084829D01*
X-7609598Y-3074670D01*
X-7614678Y-3058921D01*
X-7614678Y-3022600D01*
X-7505712Y-3192018D02*
G01*
X-7505712Y-3139947D01*
X-7552448Y-3134868D01*
X-7547368Y-3139947D01*
X-7542034Y-3155695D01*
X-7542034Y-3171189D01*
X-7547368Y-3186684D01*
X-7557528Y-3197097D01*
X-7573276Y-3202431D01*
X-7583690Y-3202431D01*
X-7599184Y-3197097D01*
X-7609598Y-3186684D01*
X-7614678Y-3171189D01*
X-7614678Y-3155695D01*
X-7609598Y-3139947D01*
X-7604518Y-3134868D01*
X-7594104Y-3129534D01*
X-5562612Y-3022600D02*
G01*
X-5671578Y-3022600D01*
X-5562612Y-3022600D02*
G01*
X-5562612Y-3058921D01*
X-5567692Y-3074670D01*
X-5578106Y-3084829D01*
X-5588520Y-3090163D01*
X-5604268Y-3095244D01*
X-5630176Y-3095244D01*
X-5645670Y-3090163D01*
X-5656084Y-3084829D01*
X-5666498Y-3074670D01*
X-5671578Y-3058921D01*
X-5671578Y-3022600D01*
X-5578106Y-3192018D02*
G01*
X-5567692Y-3186684D01*
X-5562612Y-3171189D01*
X-5562612Y-3160776D01*
X-5567692Y-3145281D01*
X-5583440Y-3134868D01*
X-5609348Y-3129534D01*
X-5635256Y-3129534D01*
X-5656084Y-3134868D01*
X-5666498Y-3145281D01*
X-5671578Y-3160776D01*
X-5671578Y-3166110D01*
X-5666498Y-3181604D01*
X-5656084Y-3192018D01*
X-5640590Y-3197097D01*
X-5635256Y-3197097D01*
X-5619762Y-3192018D01*
X-5609348Y-3181604D01*
X-5604268Y-3166110D01*
X-5604268Y-3160776D01*
X-5609348Y-3145281D01*
X-5619762Y-3134868D01*
X-5635256Y-3129534D01*
X-3606812Y-3022600D02*
G01*
X-3715778Y-3022600D01*
X-3606812Y-3022600D02*
G01*
X-3606812Y-3058921D01*
X-3611892Y-3074670D01*
X-3622306Y-3084829D01*
X-3632720Y-3090163D01*
X-3648468Y-3095244D01*
X-3674376Y-3095244D01*
X-3689870Y-3090163D01*
X-3700284Y-3084829D01*
X-3710698Y-3074670D01*
X-3715778Y-3058921D01*
X-3715778Y-3022600D01*
X-3606812Y-3202431D02*
G01*
X-3715778Y-3150362D01*
X-3606812Y-3129534D02*
G01*
X-3606812Y-3202431D01*
X-1651012Y-3022600D02*
G01*
X-1759978Y-3022600D01*
X-1651012Y-3022600D02*
G01*
X-1651012Y-3058921D01*
X-1656092Y-3074670D01*
X-1666506Y-3084829D01*
X-1676920Y-3090163D01*
X-1692668Y-3095244D01*
X-1718576Y-3095244D01*
X-1734070Y-3090163D01*
X-1744484Y-3084829D01*
X-1754898Y-3074670D01*
X-1759978Y-3058921D01*
X-1759978Y-3022600D01*
X-1651012Y-3155695D02*
G01*
X-1656092Y-3139947D01*
X-1666506Y-3134868D01*
X-1676920Y-3134868D01*
X-1687334Y-3139947D01*
X-1692668Y-3150362D01*
X-1697748Y-3171189D01*
X-1702828Y-3186684D01*
X-1713242Y-3197097D01*
X-1723656Y-3202431D01*
X-1739404Y-3202431D01*
X-1749818Y-3197097D01*
X-1754898Y-3192018D01*
X-1759978Y-3176270D01*
X-1759978Y-3155695D01*
X-1754898Y-3139947D01*
X-1749818Y-3134868D01*
X-1739404Y-3129534D01*
X-1723656Y-3129534D01*
X-1713242Y-3134868D01*
X-1702828Y-3145281D01*
X-1697748Y-3160776D01*
X-1692668Y-3181604D01*
X-1687334Y-3192018D01*
X-1676920Y-3197097D01*
X-1666506Y-3197097D01*
X-1656092Y-3192018D01*
X-1651012Y-3176270D01*
X-1651012Y-3155695D01*
X-7493012Y-4991100D02*
G01*
X-7601978Y-4991100D01*
X-7493012Y-4991100D02*
G01*
X-7493012Y-5027421D01*
X-7498092Y-5043170D01*
X-7508506Y-5053329D01*
X-7518920Y-5058663D01*
X-7534668Y-5063744D01*
X-7560576Y-5063744D01*
X-7576070Y-5058663D01*
X-7586484Y-5053329D01*
X-7596898Y-5043170D01*
X-7601978Y-5027421D01*
X-7601978Y-4991100D01*
X-7529334Y-5165597D02*
G01*
X-7544828Y-5160518D01*
X-7555242Y-5150104D01*
X-7560576Y-5134610D01*
X-7560576Y-5129276D01*
X-7555242Y-5113781D01*
X-7544828Y-5103368D01*
X-7529334Y-5098034D01*
X-7524254Y-5098034D01*
X-7508506Y-5103368D01*
X-7498092Y-5113781D01*
X-7493012Y-5129276D01*
X-7493012Y-5134610D01*
X-7498092Y-5150104D01*
X-7508506Y-5160518D01*
X-7529334Y-5165597D01*
X-7555242Y-5165597D01*
X-7581404Y-5160518D01*
X-7596898Y-5150104D01*
X-7601978Y-5134610D01*
X-7601978Y-5124195D01*
X-7596898Y-5108447D01*
X-7586484Y-5103368D01*
X-5562612Y-4991100D02*
G01*
X-5671578Y-4991100D01*
X-5562612Y-4991100D02*
G01*
X-5562612Y-5027421D01*
X-5567692Y-5043170D01*
X-5578106Y-5053329D01*
X-5588520Y-5058663D01*
X-5604268Y-5063744D01*
X-5630176Y-5063744D01*
X-5645670Y-5058663D01*
X-5656084Y-5053329D01*
X-5666498Y-5043170D01*
X-5671578Y-5027421D01*
X-5671578Y-4991100D01*
X-5583440Y-5098034D02*
G01*
X-5578106Y-5108447D01*
X-5562612Y-5124195D01*
X-5671578Y-5124195D01*
X-5562612Y-5189473D02*
G01*
X-5567692Y-5173979D01*
X-5583440Y-5163565D01*
X-5609348Y-5158486D01*
X-5624842Y-5158486D01*
X-5651004Y-5163565D01*
X-5666498Y-5173979D01*
X-5671578Y-5189473D01*
X-5671578Y-5199887D01*
X-5666498Y-5215636D01*
X-5651004Y-5226050D01*
X-5624842Y-5231129D01*
X-5609348Y-5231129D01*
X-5583440Y-5226050D01*
X-5567692Y-5215636D01*
X-5562612Y-5199887D01*
X-5562612Y-5189473D01*
X-3606812Y-4978400D02*
G01*
X-3715778Y-4978400D01*
X-3606812Y-4978400D02*
G01*
X-3606812Y-5014721D01*
X-3611892Y-5030470D01*
X-3622306Y-5040629D01*
X-3632720Y-5045963D01*
X-3648468Y-5051044D01*
X-3674376Y-5051044D01*
X-3689870Y-5045963D01*
X-3700284Y-5040629D01*
X-3710698Y-5030470D01*
X-3715778Y-5014721D01*
X-3715778Y-4978400D01*
X-3627640Y-5085334D02*
G01*
X-3622306Y-5095747D01*
X-3606812Y-5111495D01*
X-3715778Y-5111495D01*
X-3627640Y-5145786D02*
G01*
X-3622306Y-5156200D01*
X-3606812Y-5171694D01*
X-3715778Y-5171694D01*
X-1651012Y-4991100D02*
G01*
X-1759978Y-4991100D01*
X-1651012Y-4991100D02*
G01*
X-1651012Y-5027421D01*
X-1656092Y-5043170D01*
X-1666506Y-5053329D01*
X-1676920Y-5058663D01*
X-1692668Y-5063744D01*
X-1718576Y-5063744D01*
X-1734070Y-5058663D01*
X-1744484Y-5053329D01*
X-1754898Y-5043170D01*
X-1759978Y-5027421D01*
X-1759978Y-4991100D01*
X-1671840Y-5098034D02*
G01*
X-1666506Y-5108447D01*
X-1651012Y-5124195D01*
X-1759978Y-5124195D01*
X-1676920Y-5163565D02*
G01*
X-1671840Y-5163565D01*
X-1661426Y-5168900D01*
X-1656092Y-5173979D01*
X-1651012Y-5184394D01*
X-1651012Y-5205221D01*
X-1656092Y-5215636D01*
X-1661426Y-5220715D01*
X-1671840Y-5226050D01*
X-1682254Y-5226050D01*
X-1692668Y-5220715D01*
X-1708162Y-5210302D01*
X-1759978Y-5158486D01*
X-1759978Y-5231129D01*
X-7493012Y-6946900D02*
G01*
X-7601978Y-6946900D01*
X-7493012Y-6946900D02*
G01*
X-7493012Y-6983221D01*
X-7498092Y-6998970D01*
X-7508506Y-7009129D01*
X-7518920Y-7014463D01*
X-7534668Y-7019544D01*
X-7560576Y-7019544D01*
X-7576070Y-7014463D01*
X-7586484Y-7009129D01*
X-7596898Y-6998970D01*
X-7601978Y-6983221D01*
X-7601978Y-6946900D01*
X-7513840Y-7053834D02*
G01*
X-7508506Y-7064247D01*
X-7493012Y-7079995D01*
X-7601978Y-7079995D01*
X-7493012Y-7124700D02*
G01*
X-7493012Y-7181850D01*
X-7534668Y-7150608D01*
X-7534668Y-7166102D01*
X-7539748Y-7176515D01*
X-7544828Y-7181850D01*
X-7560576Y-7186929D01*
X-7570990Y-7186929D01*
X-7586484Y-7181850D01*
X-7596898Y-7171436D01*
X-7601978Y-7155687D01*
X-7601978Y-7140194D01*
X-7596898Y-7124700D01*
X-7591818Y-7119365D01*
X-7581404Y-7114286D01*
X-5562612Y-6946900D02*
G01*
X-5671578Y-6946900D01*
X-5562612Y-6946900D02*
G01*
X-5562612Y-6983221D01*
X-5567692Y-6998970D01*
X-5578106Y-7009129D01*
X-5588520Y-7014463D01*
X-5604268Y-7019544D01*
X-5630176Y-7019544D01*
X-5645670Y-7014463D01*
X-5656084Y-7009129D01*
X-5666498Y-6998970D01*
X-5671578Y-6983221D01*
X-5671578Y-6946900D01*
X-5583440Y-7053834D02*
G01*
X-5578106Y-7064247D01*
X-5562612Y-7079995D01*
X-5671578Y-7079995D01*
X-5562612Y-7166102D02*
G01*
X-5635256Y-7114286D01*
X-5635256Y-7192010D01*
X-5562612Y-7166102D02*
G01*
X-5671578Y-7166102D01*
X-3606812Y-6934200D02*
G01*
X-3715778Y-6934200D01*
X-3606812Y-6934200D02*
G01*
X-3606812Y-6970521D01*
X-3611892Y-6986270D01*
X-3622306Y-6996429D01*
X-3632720Y-7001763D01*
X-3648468Y-7006844D01*
X-3674376Y-7006844D01*
X-3689870Y-7001763D01*
X-3700284Y-6996429D01*
X-3710698Y-6986270D01*
X-3715778Y-6970521D01*
X-3715778Y-6934200D01*
X-3627640Y-7041134D02*
G01*
X-3622306Y-7051547D01*
X-3606812Y-7067295D01*
X-3715778Y-7067295D01*
X-3606812Y-7163815D02*
G01*
X-3606812Y-7112000D01*
X-3653548Y-7106665D01*
X-3648468Y-7112000D01*
X-3643134Y-7127494D01*
X-3643134Y-7142987D01*
X-3648468Y-7158736D01*
X-3658628Y-7169150D01*
X-3674376Y-7174229D01*
X-3684790Y-7174229D01*
X-3700284Y-7169150D01*
X-3710698Y-7158736D01*
X-3715778Y-7142987D01*
X-3715778Y-7127494D01*
X-3710698Y-7112000D01*
X-3705618Y-7106665D01*
X-3695204Y-7101586D01*
X-1651012Y-6946900D02*
G01*
X-1759978Y-6946900D01*
X-1651012Y-6946900D02*
G01*
X-1651012Y-6983221D01*
X-1656092Y-6998970D01*
X-1666506Y-7009129D01*
X-1676920Y-7014463D01*
X-1692668Y-7019544D01*
X-1718576Y-7019544D01*
X-1734070Y-7014463D01*
X-1744484Y-7009129D01*
X-1754898Y-6998970D01*
X-1759978Y-6983221D01*
X-1759978Y-6946900D01*
X-1671840Y-7053834D02*
G01*
X-1666506Y-7064247D01*
X-1651012Y-7079995D01*
X-1759978Y-7079995D01*
X-1666506Y-7176515D02*
G01*
X-1656092Y-7171436D01*
X-1651012Y-7155687D01*
X-1651012Y-7145273D01*
X-1656092Y-7129779D01*
X-1671840Y-7119365D01*
X-1697748Y-7114286D01*
X-1723656Y-7114286D01*
X-1744484Y-7119365D01*
X-1754898Y-7129779D01*
X-1759978Y-7145273D01*
X-1759978Y-7150608D01*
X-1754898Y-7166102D01*
X-1744484Y-7176515D01*
X-1728990Y-7181850D01*
X-1723656Y-7181850D01*
X-1708162Y-7176515D01*
X-1697748Y-7166102D01*
X-1692668Y-7150608D01*
X-1692668Y-7145273D01*
X-1697748Y-7129779D01*
X-1708162Y-7119365D01*
X-1723656Y-7114286D01*
X-9284728Y-5690615D02*
G01*
X-9284728Y-5581650D01*
X-9284728Y-5690615D02*
G01*
X-9321050Y-5690615D01*
X-9336798Y-5685536D01*
X-9346958Y-5675121D01*
X-9352292Y-5664707D01*
X-9357372Y-5648960D01*
X-9357372Y-5623052D01*
X-9352292Y-5607557D01*
X-9346958Y-5597144D01*
X-9336798Y-5586729D01*
X-9321050Y-5581650D01*
X-9284728Y-5581650D01*
X-9391662Y-5669787D02*
G01*
X-9402076Y-5675121D01*
X-9417824Y-5690615D01*
X-9417824Y-5581650D01*
X-9524758Y-5690615D02*
G01*
X-9472688Y-5581650D01*
X-9452114Y-5690615D02*
G01*
X-9524758Y-5690615D01*
X-6998728Y-87884D02*
G01*
X-6998728Y-196850D01*
X-6926084Y-87884D02*
G01*
X-6998728Y-160528D01*
X-6972820Y-134620D02*
G01*
X-6926084Y-196850D01*
X-6891794Y-87884D02*
G01*
X-6891794Y-196850D01*
X-6891794Y-87884D02*
G01*
X-6824230Y-87884D01*
X-6891794Y-139700D02*
G01*
X-6850138Y-139700D01*
X-6891794Y-196850D02*
G01*
X-6824230Y-196850D01*
X-6789940Y-87884D02*
G01*
X-6748284Y-139700D01*
X-6748284Y-196850D01*
X-6706628Y-87884D02*
G01*
X-6748284Y-139700D01*
X-6672338Y-108712D02*
G01*
X-6662178Y-103378D01*
X-6646430Y-87884D01*
X-6646430Y-196850D01*
X-5030228Y-100584D02*
G01*
X-5030228Y-209550D01*
X-4957584Y-100584D02*
G01*
X-5030228Y-173228D01*
X-5004320Y-147320D02*
G01*
X-4957584Y-209550D01*
X-4923294Y-100584D02*
G01*
X-4923294Y-209550D01*
X-4923294Y-100584D02*
G01*
X-4855730Y-100584D01*
X-4923294Y-152400D02*
G01*
X-4881638Y-152400D01*
X-4923294Y-209550D02*
G01*
X-4855730Y-209550D01*
X-4821440Y-100584D02*
G01*
X-4779784Y-152400D01*
X-4779784Y-209550D01*
X-4738128Y-100584D02*
G01*
X-4779784Y-152400D01*
X-4698758Y-126492D02*
G01*
X-4698758Y-121412D01*
X-4693678Y-110997D01*
X-4688344Y-105663D01*
X-4677930Y-100584D01*
X-4657102Y-100584D01*
X-4646688Y-105663D01*
X-4641608Y-110997D01*
X-4636528Y-121412D01*
X-4636528Y-131826D01*
X-4641608Y-142239D01*
X-4652022Y-157734D01*
X-4703838Y-209550D01*
X-4631194Y-209550D01*
X-3099828Y-113284D02*
G01*
X-3099828Y-222250D01*
X-3027184Y-113284D02*
G01*
X-3099828Y-185928D01*
X-3073920Y-160020D02*
G01*
X-3027184Y-222250D01*
X-2992894Y-113284D02*
G01*
X-2992894Y-222250D01*
X-2992894Y-113284D02*
G01*
X-2925330Y-113284D01*
X-2992894Y-165100D02*
G01*
X-2951238Y-165100D01*
X-2992894Y-222250D02*
G01*
X-2925330Y-222250D01*
X-2891040Y-113284D02*
G01*
X-2849384Y-165100D01*
X-2849384Y-222250D01*
X-2807728Y-113284D02*
G01*
X-2849384Y-165100D01*
X-2763278Y-113284D02*
G01*
X-2706128Y-113284D01*
X-2737116Y-154939D01*
X-2721622Y-154939D01*
X-2711208Y-160020D01*
X-2706128Y-165100D01*
X-2700794Y-180847D01*
X-2700794Y-191262D01*
X-2706128Y-206755D01*
X-2716288Y-217170D01*
X-2732036Y-222250D01*
X-2747530Y-222250D01*
X-2763278Y-217170D01*
X-2768358Y-212089D01*
X-2773438Y-201676D01*
X-1144028Y-125984D02*
G01*
X-1144028Y-234950D01*
X-1071384Y-125984D02*
G01*
X-1144028Y-198628D01*
X-1118120Y-172720D02*
G01*
X-1071384Y-234950D01*
X-1037094Y-125984D02*
G01*
X-1037094Y-234950D01*
X-1037094Y-125984D02*
G01*
X-969530Y-125984D01*
X-1037094Y-177800D02*
G01*
X-995438Y-177800D01*
X-1037094Y-234950D02*
G01*
X-969530Y-234950D01*
X-935240Y-125984D02*
G01*
X-893584Y-177800D01*
X-893584Y-234950D01*
X-851928Y-125984D02*
G01*
X-893584Y-177800D01*
X-765822Y-125984D02*
G01*
X-817638Y-198628D01*
X-739914Y-198628D01*
X-765822Y-125984D02*
G01*
X-765822Y-234950D01*
X-7062228Y-2094484D02*
G01*
X-7062228Y-2203450D01*
X-6989584Y-2094484D02*
G01*
X-7062228Y-2167128D01*
X-7036320Y-2141220D02*
G01*
X-6989584Y-2203450D01*
X-6955294Y-2094484D02*
G01*
X-6955294Y-2203450D01*
X-6955294Y-2094484D02*
G01*
X-6887730Y-2094484D01*
X-6955294Y-2146300D02*
G01*
X-6913638Y-2146300D01*
X-6955294Y-2203450D02*
G01*
X-6887730Y-2203450D01*
X-6853440Y-2094484D02*
G01*
X-6811784Y-2146300D01*
X-6811784Y-2203450D01*
X-6770128Y-2094484D02*
G01*
X-6811784Y-2146300D01*
X-6673608Y-2094484D02*
G01*
X-6725678Y-2094484D01*
X-6730758Y-2141220D01*
X-6725678Y-2136139D01*
X-6709930Y-2130805D01*
X-6694436Y-2130805D01*
X-6678688Y-2136139D01*
X-6668528Y-2146300D01*
X-6663194Y-2162047D01*
X-6663194Y-2172462D01*
X-6668528Y-2187955D01*
X-6678688Y-2198370D01*
X-6694436Y-2203450D01*
X-6709930Y-2203450D01*
X-6725678Y-2198370D01*
X-6730758Y-2193289D01*
X-6735838Y-2182876D01*
X-5068328Y-2069084D02*
G01*
X-5068328Y-2178050D01*
X-4995684Y-2069084D02*
G01*
X-5068328Y-2141728D01*
X-5042420Y-2115820D02*
G01*
X-4995684Y-2178050D01*
X-4961394Y-2069084D02*
G01*
X-4961394Y-2178050D01*
X-4961394Y-2069084D02*
G01*
X-4893830Y-2069084D01*
X-4961394Y-2120900D02*
G01*
X-4919738Y-2120900D01*
X-4961394Y-2178050D02*
G01*
X-4893830Y-2178050D01*
X-4859540Y-2069084D02*
G01*
X-4817884Y-2120900D01*
X-4817884Y-2178050D01*
X-4776228Y-2069084D02*
G01*
X-4817884Y-2120900D01*
X-4679708Y-2084578D02*
G01*
X-4684788Y-2074163D01*
X-4700536Y-2069084D01*
X-4710950Y-2069084D01*
X-4726444Y-2074163D01*
X-4736858Y-2089912D01*
X-4741938Y-2115820D01*
X-4741938Y-2141728D01*
X-4736858Y-2162555D01*
X-4726444Y-2172970D01*
X-4710950Y-2178050D01*
X-4705616Y-2178050D01*
X-4690122Y-2172970D01*
X-4679708Y-2162555D01*
X-4674628Y-2147062D01*
X-4674628Y-2141728D01*
X-4679708Y-2126234D01*
X-4690122Y-2115820D01*
X-4705616Y-2110739D01*
X-4710950Y-2110739D01*
X-4726444Y-2115820D01*
X-4736858Y-2126234D01*
X-4741938Y-2141728D01*
X-3112528Y-2094484D02*
G01*
X-3112528Y-2203450D01*
X-3039884Y-2094484D02*
G01*
X-3112528Y-2167128D01*
X-3086620Y-2141220D02*
G01*
X-3039884Y-2203450D01*
X-3005594Y-2094484D02*
G01*
X-3005594Y-2203450D01*
X-3005594Y-2094484D02*
G01*
X-2938030Y-2094484D01*
X-3005594Y-2146300D02*
G01*
X-2963938Y-2146300D01*
X-3005594Y-2203450D02*
G01*
X-2938030Y-2203450D01*
X-2903740Y-2094484D02*
G01*
X-2862084Y-2146300D01*
X-2862084Y-2203450D01*
X-2820428Y-2094484D02*
G01*
X-2862084Y-2146300D01*
X-2713494Y-2094484D02*
G01*
X-2765564Y-2203450D01*
X-2786138Y-2094484D02*
G01*
X-2713494Y-2094484D01*
X-1169428Y-2107184D02*
G01*
X-1169428Y-2216150D01*
X-1096784Y-2107184D02*
G01*
X-1169428Y-2179828D01*
X-1143520Y-2153920D02*
G01*
X-1096784Y-2216150D01*
X-1062494Y-2107184D02*
G01*
X-1062494Y-2216150D01*
X-1062494Y-2107184D02*
G01*
X-994930Y-2107184D01*
X-1062494Y-2159000D02*
G01*
X-1020838Y-2159000D01*
X-1062494Y-2216150D02*
G01*
X-994930Y-2216150D01*
X-960640Y-2107184D02*
G01*
X-918984Y-2159000D01*
X-918984Y-2216150D01*
X-877328Y-2107184D02*
G01*
X-918984Y-2159000D01*
X-817130Y-2107184D02*
G01*
X-832878Y-2112263D01*
X-837958Y-2122678D01*
X-837958Y-2133092D01*
X-832878Y-2143505D01*
X-822464Y-2148839D01*
X-801636Y-2153920D01*
X-785888Y-2159000D01*
X-775728Y-2169413D01*
X-770394Y-2179828D01*
X-770394Y-2195576D01*
X-775728Y-2205989D01*
X-780808Y-2211070D01*
X-796302Y-2216150D01*
X-817130Y-2216150D01*
X-832878Y-2211070D01*
X-837958Y-2205989D01*
X-843038Y-2195576D01*
X-843038Y-2179828D01*
X-837958Y-2169413D01*
X-827544Y-2159000D01*
X-812050Y-2153920D01*
X-791222Y-2148839D01*
X-780808Y-2143505D01*
X-775728Y-2133092D01*
X-775728Y-2122678D01*
X-780808Y-2112263D01*
X-796302Y-2107184D01*
X-817130Y-2107184D01*
X-7024128Y-4062984D02*
G01*
X-7024128Y-4171950D01*
X-6951484Y-4062984D02*
G01*
X-7024128Y-4135628D01*
X-6998220Y-4109720D02*
G01*
X-6951484Y-4171950D01*
X-6917194Y-4062984D02*
G01*
X-6917194Y-4171950D01*
X-6917194Y-4062984D02*
G01*
X-6849630Y-4062984D01*
X-6917194Y-4114800D02*
G01*
X-6875538Y-4114800D01*
X-6917194Y-4171950D02*
G01*
X-6849630Y-4171950D01*
X-6815340Y-4062984D02*
G01*
X-6773684Y-4114800D01*
X-6773684Y-4171950D01*
X-6732028Y-4062984D02*
G01*
X-6773684Y-4114800D01*
X-6630428Y-4099305D02*
G01*
X-6635508Y-4114800D01*
X-6645922Y-4125213D01*
X-6661416Y-4130547D01*
X-6666750Y-4130547D01*
X-6682244Y-4125213D01*
X-6692658Y-4114800D01*
X-6697738Y-4099305D01*
X-6697738Y-4094226D01*
X-6692658Y-4078478D01*
X-6682244Y-4068063D01*
X-6666750Y-4062984D01*
X-6661416Y-4062984D01*
X-6645922Y-4068063D01*
X-6635508Y-4078478D01*
X-6630428Y-4099305D01*
X-6630428Y-4125213D01*
X-6635508Y-4151376D01*
X-6645922Y-4166870D01*
X-6661416Y-4171950D01*
X-6671830Y-4171950D01*
X-6687578Y-4166870D01*
X-6692658Y-4156455D01*
X-5068328Y-4037584D02*
G01*
X-5068328Y-4146550D01*
X-4995684Y-4037584D02*
G01*
X-5068328Y-4110228D01*
X-5042420Y-4084320D02*
G01*
X-4995684Y-4146550D01*
X-4961394Y-4037584D02*
G01*
X-4961394Y-4146550D01*
X-4961394Y-4037584D02*
G01*
X-4893830Y-4037584D01*
X-4961394Y-4089400D02*
G01*
X-4919738Y-4089400D01*
X-4961394Y-4146550D02*
G01*
X-4893830Y-4146550D01*
X-4859540Y-4037584D02*
G01*
X-4817884Y-4089400D01*
X-4817884Y-4146550D01*
X-4776228Y-4037584D02*
G01*
X-4817884Y-4089400D01*
X-4741938Y-4058412D02*
G01*
X-4731778Y-4053078D01*
X-4716030Y-4037584D01*
X-4716030Y-4146550D01*
X-4650498Y-4037584D02*
G01*
X-4666246Y-4042663D01*
X-4676660Y-4058412D01*
X-4681740Y-4084320D01*
X-4681740Y-4099813D01*
X-4676660Y-4125976D01*
X-4666246Y-4141470D01*
X-4650498Y-4146550D01*
X-4640338Y-4146550D01*
X-4624590Y-4141470D01*
X-4614176Y-4125976D01*
X-4609096Y-4099813D01*
X-4609096Y-4084320D01*
X-4614176Y-4058412D01*
X-4624590Y-4042663D01*
X-4640338Y-4037584D01*
X-4650498Y-4037584D01*
X-3087128Y-4037584D02*
G01*
X-3087128Y-4146550D01*
X-3014484Y-4037584D02*
G01*
X-3087128Y-4110228D01*
X-3061220Y-4084320D02*
G01*
X-3014484Y-4146550D01*
X-2980194Y-4037584D02*
G01*
X-2980194Y-4146550D01*
X-2980194Y-4037584D02*
G01*
X-2912630Y-4037584D01*
X-2980194Y-4089400D02*
G01*
X-2938538Y-4089400D01*
X-2980194Y-4146550D02*
G01*
X-2912630Y-4146550D01*
X-2878340Y-4037584D02*
G01*
X-2836684Y-4089400D01*
X-2836684Y-4146550D01*
X-2795028Y-4037584D02*
G01*
X-2836684Y-4089400D01*
X-2760738Y-4058412D02*
G01*
X-2750578Y-4053078D01*
X-2734830Y-4037584D01*
X-2734830Y-4146550D01*
X-2700540Y-4058412D02*
G01*
X-2690126Y-4053078D01*
X-2674632Y-4037584D01*
X-2674632Y-4146550D01*
X-1118628Y-4075684D02*
G01*
X-1118628Y-4184650D01*
X-1045984Y-4075684D02*
G01*
X-1118628Y-4148328D01*
X-1092720Y-4122420D02*
G01*
X-1045984Y-4184650D01*
X-1011694Y-4075684D02*
G01*
X-1011694Y-4184650D01*
X-1011694Y-4075684D02*
G01*
X-944130Y-4075684D01*
X-1011694Y-4127500D02*
G01*
X-970038Y-4127500D01*
X-1011694Y-4184650D02*
G01*
X-944130Y-4184650D01*
X-909840Y-4075684D02*
G01*
X-868184Y-4127500D01*
X-868184Y-4184650D01*
X-826528Y-4075684D02*
G01*
X-868184Y-4127500D01*
X-792238Y-4096512D02*
G01*
X-782078Y-4091178D01*
X-766330Y-4075684D01*
X-766330Y-4184650D01*
X-726960Y-4101592D02*
G01*
X-726960Y-4096512D01*
X-721626Y-4086097D01*
X-716546Y-4080763D01*
X-706132Y-4075684D01*
X-685304Y-4075684D01*
X-674890Y-4080763D01*
X-669810Y-4086097D01*
X-664476Y-4096512D01*
X-664476Y-4106926D01*
X-669810Y-4117339D01*
X-680224Y-4132834D01*
X-732040Y-4184650D01*
X-659396Y-4184650D01*
X-7024128Y-5967984D02*
G01*
X-7024128Y-6076950D01*
X-6951484Y-5967984D02*
G01*
X-7024128Y-6040628D01*
X-6998220Y-6014720D02*
G01*
X-6951484Y-6076950D01*
X-6917194Y-5967984D02*
G01*
X-6917194Y-6076950D01*
X-6917194Y-5967984D02*
G01*
X-6849630Y-5967984D01*
X-6917194Y-6019800D02*
G01*
X-6875538Y-6019800D01*
X-6917194Y-6076950D02*
G01*
X-6849630Y-6076950D01*
X-6815340Y-5967984D02*
G01*
X-6773684Y-6019800D01*
X-6773684Y-6076950D01*
X-6732028Y-5967984D02*
G01*
X-6773684Y-6019800D01*
X-6697738Y-5988812D02*
G01*
X-6687578Y-5983478D01*
X-6671830Y-5967984D01*
X-6671830Y-6076950D01*
X-6627126Y-5967984D02*
G01*
X-6569976Y-5967984D01*
X-6601218Y-6009639D01*
X-6585724Y-6009639D01*
X-6575310Y-6014720D01*
X-6569976Y-6019800D01*
X-6564896Y-6035547D01*
X-6564896Y-6045962D01*
X-6569976Y-6061455D01*
X-6580390Y-6071870D01*
X-6596138Y-6076950D01*
X-6611632Y-6076950D01*
X-6627126Y-6071870D01*
X-6632460Y-6066789D01*
X-6637540Y-6056376D01*
X-5004828Y-5993384D02*
G01*
X-5004828Y-6102350D01*
X-4932184Y-5993384D02*
G01*
X-5004828Y-6066028D01*
X-4978920Y-6040120D02*
G01*
X-4932184Y-6102350D01*
X-4897894Y-5993384D02*
G01*
X-4897894Y-6102350D01*
X-4897894Y-5993384D02*
G01*
X-4830330Y-5993384D01*
X-4897894Y-6045200D02*
G01*
X-4856238Y-6045200D01*
X-4897894Y-6102350D02*
G01*
X-4830330Y-6102350D01*
X-4796040Y-5993384D02*
G01*
X-4754384Y-6045200D01*
X-4754384Y-6102350D01*
X-4712728Y-5993384D02*
G01*
X-4754384Y-6045200D01*
X-4678438Y-6014212D02*
G01*
X-4668278Y-6008878D01*
X-4652530Y-5993384D01*
X-4652530Y-6102350D01*
X-4566424Y-5993384D02*
G01*
X-4618240Y-6066028D01*
X-4540262Y-6066028D01*
X-4566424Y-5993384D02*
G01*
X-4566424Y-6102350D01*
X-3087128Y-5993384D02*
G01*
X-3087128Y-6102350D01*
X-3014484Y-5993384D02*
G01*
X-3087128Y-6066028D01*
X-3061220Y-6040120D02*
G01*
X-3014484Y-6102350D01*
X-2980194Y-5993384D02*
G01*
X-2980194Y-6102350D01*
X-2980194Y-5993384D02*
G01*
X-2912630Y-5993384D01*
X-2980194Y-6045200D02*
G01*
X-2938538Y-6045200D01*
X-2980194Y-6102350D02*
G01*
X-2912630Y-6102350D01*
X-2878340Y-5993384D02*
G01*
X-2836684Y-6045200D01*
X-2836684Y-6102350D01*
X-2795028Y-5993384D02*
G01*
X-2836684Y-6045200D01*
X-2760738Y-6014212D02*
G01*
X-2750578Y-6008878D01*
X-2734830Y-5993384D01*
X-2734830Y-6102350D01*
X-2638310Y-5993384D02*
G01*
X-2690126Y-5993384D01*
X-2695460Y-6040120D01*
X-2690126Y-6035039D01*
X-2674632Y-6029705D01*
X-2659138Y-6029705D01*
X-2643390Y-6035039D01*
X-2632976Y-6045200D01*
X-2627896Y-6060947D01*
X-2627896Y-6071362D01*
X-2632976Y-6086855D01*
X-2643390Y-6097270D01*
X-2659138Y-6102350D01*
X-2674632Y-6102350D01*
X-2690126Y-6097270D01*
X-2695460Y-6092189D01*
X-2700540Y-6081776D01*
X-1131328Y-5993384D02*
G01*
X-1131328Y-6102350D01*
X-1058684Y-5993384D02*
G01*
X-1131328Y-6066028D01*
X-1105420Y-6040120D02*
G01*
X-1058684Y-6102350D01*
X-1024394Y-5993384D02*
G01*
X-1024394Y-6102350D01*
X-1024394Y-5993384D02*
G01*
X-956830Y-5993384D01*
X-1024394Y-6045200D02*
G01*
X-982738Y-6045200D01*
X-1024394Y-6102350D02*
G01*
X-956830Y-6102350D01*
X-922540Y-5993384D02*
G01*
X-880884Y-6045200D01*
X-880884Y-6102350D01*
X-839228Y-5993384D02*
G01*
X-880884Y-6045200D01*
X-804938Y-6014212D02*
G01*
X-794778Y-6008878D01*
X-779030Y-5993384D01*
X-779030Y-6102350D01*
X-682510Y-6008878D02*
G01*
X-687590Y-5998463D01*
X-703338Y-5993384D01*
X-713498Y-5993384D01*
X-729246Y-5998463D01*
X-739660Y-6014212D01*
X-744740Y-6040120D01*
X-744740Y-6066028D01*
X-739660Y-6086855D01*
X-729246Y-6097270D01*
X-713498Y-6102350D01*
X-708418Y-6102350D01*
X-692924Y-6097270D01*
X-682510Y-6086855D01*
X-677176Y-6071362D01*
X-677176Y-6066028D01*
X-682510Y-6050534D01*
X-692924Y-6040120D01*
X-708418Y-6035039D01*
X-713498Y-6035039D01*
X-729246Y-6040120D01*
X-739660Y-6050534D01*
X-744740Y-6066028D01*
X-9195828Y51815D02*
G01*
X-9195828Y-57150D01*
X-9195828Y51815D02*
G01*
X-9149092Y51815D01*
X-9133598Y46736D01*
X-9128264Y41402D01*
X-9123184Y30987D01*
X-9123184Y15494D01*
X-9128264Y5079D01*
X-9133598Y0D01*
X-9149092Y-5334D01*
X-9195828Y-5334D01*
X-9088894Y30987D02*
G01*
X-9078480Y36321D01*
X-9062732Y51815D01*
X-9062732Y-57150D01*
X-9746500Y-3257042D02*
G01*
X-9736086Y-3260344D01*
X-9729228Y-3267455D01*
X-9725672Y-3277870D01*
X-9725672Y-3281171D01*
X-9729228Y-3291586D01*
X-9736086Y-3298444D01*
X-9746500Y-3302000D01*
X-9750056Y-3302000D01*
X-9760470Y-3298444D01*
X-9767328Y-3291586D01*
X-9770884Y-3281171D01*
X-9770884Y-3277870D01*
X-9767328Y-3267455D01*
X-9760470Y-3260344D01*
X-9746500Y-3257042D01*
X-9729228Y-3257042D01*
X-9711956Y-3260344D01*
X-9701542Y-3267455D01*
X-9697986Y-3277870D01*
X-9697986Y-3284728D01*
X-9701542Y-3295142D01*
X-9708400Y-3298444D01*
X-9770884Y-3030728D02*
G01*
X-9767328Y-3041142D01*
X-9760470Y-3044444D01*
X-9753358Y-3044444D01*
X-9746500Y-3041142D01*
X-9743198Y-3034029D01*
X-9739642Y-3020313D01*
X-9736086Y-3009900D01*
X-9729228Y-3003042D01*
X-9722370Y-2999486D01*
X-9711956Y-2999486D01*
X-9705098Y-3003042D01*
X-9701542Y-3006344D01*
X-9697986Y-3016757D01*
X-9697986Y-3030728D01*
X-9701542Y-3041142D01*
X-9705098Y-3044444D01*
X-9711956Y-3048000D01*
X-9722370Y-3048000D01*
X-9729228Y-3044444D01*
X-9736086Y-3037586D01*
X-9739642Y-3027171D01*
X-9743198Y-3013455D01*
X-9746500Y-3006344D01*
X-9753358Y-3003042D01*
X-9760470Y-3003042D01*
X-9767328Y-3006344D01*
X-9770884Y-3016757D01*
X-9770884Y-3030728D01*
X-9770884Y-2745486D02*
G01*
X-9697986Y-2780029D01*
X-9770884Y-2794000D02*
G01*
X-9770884Y-2745486D01*
X-9760470Y-2498344D02*
G01*
X-9767328Y-2501900D01*
X-9770884Y-2512313D01*
X-9770884Y-2519171D01*
X-9767328Y-2529586D01*
X-9756914Y-2536444D01*
X-9739642Y-2540000D01*
X-9722370Y-2540000D01*
X-9708400Y-2536444D01*
X-9701542Y-2529586D01*
X-9697986Y-2519171D01*
X-9697986Y-2515870D01*
X-9701542Y-2505455D01*
X-9708400Y-2498344D01*
X-9718814Y-2495042D01*
X-9722370Y-2495042D01*
X-9732784Y-2498344D01*
X-9739642Y-2505455D01*
X-9743198Y-2515870D01*
X-9743198Y-2519171D01*
X-9739642Y-2529586D01*
X-9732784Y-2536444D01*
X-9722370Y-2540000D01*
X-9770884Y-2244344D02*
G01*
X-9770884Y-2279142D01*
X-9739642Y-2282444D01*
X-9743198Y-2279142D01*
X-9746500Y-2268728D01*
X-9746500Y-2258313D01*
X-9743198Y-2247900D01*
X-9736086Y-2241042D01*
X-9725672Y-2237486D01*
X-9718814Y-2237486D01*
X-9708400Y-2241042D01*
X-9701542Y-2247900D01*
X-9697986Y-2258313D01*
X-9697986Y-2268728D01*
X-9701542Y-2279142D01*
X-9705098Y-2282444D01*
X-9711956Y-2286000D01*
X-9770884Y-1997455D02*
G01*
X-9722370Y-2032000D01*
X-9722370Y-1979929D01*
X-9770884Y-1997455D02*
G01*
X-9697986Y-1997455D01*
X-9770884Y-1771142D02*
G01*
X-9770884Y-1733042D01*
X-9743198Y-1753870D01*
X-9743198Y-1743455D01*
X-9739642Y-1736344D01*
X-9736086Y-1733042D01*
X-9725672Y-1729486D01*
X-9718814Y-1729486D01*
X-9708400Y-1733042D01*
X-9701542Y-1739900D01*
X-9697986Y-1750313D01*
X-9697986Y-1760728D01*
X-9701542Y-1771142D01*
X-9705098Y-1774444D01*
X-9711956Y-1778000D01*
X-9759708Y-1534160D02*
G01*
X-9762248Y-1534160D01*
X-9767328Y-1531620D01*
X-9769868Y-1529079D01*
X-9772408Y-1524000D01*
X-9772408Y-1513839D01*
X-9769868Y-1508760D01*
X-9767328Y-1506220D01*
X-9762248Y-1503679D01*
X-9757168Y-1503679D01*
X-9752088Y-1506220D01*
X-9744468Y-1511300D01*
X-9719068Y-1536700D01*
X-9719068Y-1501139D01*
X-9759708Y-1295400D02*
G01*
X-9764788Y-1297939D01*
X-9769868Y-1303020D01*
X-9772408Y-1308100D01*
X-9772408Y-1318260D01*
X-9769868Y-1323339D01*
X-9764788Y-1328420D01*
X-9759708Y-1330960D01*
X-9752088Y-1333500D01*
X-9739388Y-1333500D01*
X-9731768Y-1330960D01*
X-9726688Y-1328420D01*
X-9721608Y-1323339D01*
X-9719068Y-1318260D01*
X-9719068Y-1308100D01*
X-9721608Y-1303020D01*
X-9726688Y-1297939D01*
X-9731768Y-1295400D01*
X-9739388Y-1295400D01*
X-9739388Y-1308100D02*
G01*
X-9739388Y-1295400D01*
X-9772408Y-1278636D02*
G01*
X-9719068Y-1278636D01*
X-9772408Y-1278636D02*
G01*
X-9719068Y-1243076D01*
X-9772408Y-1243076D02*
G01*
X-9719068Y-1243076D01*
X-9772408Y-1226312D02*
G01*
X-9719068Y-1226312D01*
X-9772408Y-1226312D02*
G01*
X-9772408Y-1208531D01*
X-9769868Y-1200912D01*
X-9764788Y-1195831D01*
X-9759708Y-1193292D01*
X-9752088Y-1190752D01*
X-9739388Y-1190752D01*
X-9731768Y-1193292D01*
X-9726688Y-1195831D01*
X-9721608Y-1200912D01*
X-9719068Y-1208531D01*
X-9719068Y-1226312D01*
X-9759708Y-1041400D02*
G01*
X-9764788Y-1043939D01*
X-9769868Y-1049020D01*
X-9772408Y-1054100D01*
X-9772408Y-1064260D01*
X-9769868Y-1069339D01*
X-9764788Y-1074420D01*
X-9759708Y-1076960D01*
X-9752088Y-1079500D01*
X-9739388Y-1079500D01*
X-9731768Y-1076960D01*
X-9726688Y-1074420D01*
X-9721608Y-1069339D01*
X-9719068Y-1064260D01*
X-9719068Y-1054100D01*
X-9721608Y-1049020D01*
X-9726688Y-1043939D01*
X-9731768Y-1041400D01*
X-9739388Y-1041400D01*
X-9739388Y-1054100D02*
G01*
X-9739388Y-1041400D01*
X-9772408Y-1024636D02*
G01*
X-9719068Y-1024636D01*
X-9772408Y-1024636D02*
G01*
X-9719068Y-989076D01*
X-9772408Y-989076D02*
G01*
X-9719068Y-989076D01*
X-9772408Y-972312D02*
G01*
X-9719068Y-972312D01*
X-9772408Y-972312D02*
G01*
X-9772408Y-954531D01*
X-9769868Y-946912D01*
X-9764788Y-941831D01*
X-9759708Y-939292D01*
X-9752088Y-936752D01*
X-9739388Y-936752D01*
X-9731768Y-939292D01*
X-9726688Y-941831D01*
X-9721608Y-946912D01*
X-9719068Y-954531D01*
X-9719068Y-972312D01*
X-9772408Y-825500D02*
G01*
X-9719068Y-825500D01*
X-9772408Y-825500D02*
G01*
X-9772408Y-802639D01*
X-9769868Y-795020D01*
X-9767328Y-792479D01*
X-9762248Y-789939D01*
X-9757168Y-789939D01*
X-9752088Y-792479D01*
X-9749548Y-795020D01*
X-9747008Y-802639D01*
X-9747008Y-825500D01*
X-9747008Y-807720D02*
G01*
X-9719068Y-789939D01*
X-9772408Y-773176D02*
G01*
X-9719068Y-737615D01*
X-9772408Y-737615D02*
G01*
X-9719068Y-773176D01*
X-9772408Y-720852D02*
G01*
X-9719068Y-720852D01*
X-9772408Y-553720D02*
G01*
X-9719068Y-553720D01*
X-9772408Y-571500D02*
G01*
X-9772408Y-535939D01*
X-9772408Y-519176D02*
G01*
X-9719068Y-483615D01*
X-9772408Y-483615D02*
G01*
X-9719068Y-519176D01*
X-9772408Y-451612D02*
G01*
X-9769868Y-456692D01*
X-9764788Y-461771D01*
X-9759708Y-464312D01*
X-9752088Y-466852D01*
X-9739388Y-466852D01*
X-9731768Y-464312D01*
X-9726688Y-461771D01*
X-9721608Y-456692D01*
X-9719068Y-451612D01*
X-9719068Y-441452D01*
X-9721608Y-436371D01*
X-9726688Y-431292D01*
X-9731768Y-428752D01*
X-9739388Y-426212D01*
X-9752088Y-426212D01*
X-9759708Y-428752D01*
X-9764788Y-431292D01*
X-9769868Y-436371D01*
X-9772408Y-441452D01*
X-9772408Y-451612D01*
X-8667508Y-571500D02*
G01*
X-8614168Y-571500D01*
X-8667508Y-571500D02*
G01*
X-8667508Y-548639D01*
X-8664968Y-541020D01*
X-8662428Y-538479D01*
X-8657348Y-535939D01*
X-8652268Y-535939D01*
X-8647188Y-538479D01*
X-8644648Y-541020D01*
X-8642108Y-548639D01*
X-8642108Y-571500D01*
X-8642108Y-553720D02*
G01*
X-8614168Y-535939D01*
X-8667508Y-498855D02*
G01*
X-8614168Y-519176D01*
X-8667508Y-498855D02*
G01*
X-8614168Y-478536D01*
X-8631948Y-511555D02*
G01*
X-8631948Y-486155D01*
X-8667508Y-461771D02*
G01*
X-8614168Y-449071D01*
X-8667508Y-436371D02*
G01*
X-8614168Y-449071D01*
X-8667508Y-436371D02*
G01*
X-8614168Y-423671D01*
X-8667508Y-410971D02*
G01*
X-8614168Y-423671D01*
X-8654808Y-762000D02*
G01*
X-8659888Y-764539D01*
X-8664968Y-769620D01*
X-8667508Y-774700D01*
X-8667508Y-784860D01*
X-8664968Y-789939D01*
X-8659888Y-795020D01*
X-8654808Y-797560D01*
X-8647188Y-800100D01*
X-8634488Y-800100D01*
X-8626868Y-797560D01*
X-8621788Y-795020D01*
X-8616708Y-789939D01*
X-8614168Y-784860D01*
X-8614168Y-774700D01*
X-8616708Y-769620D01*
X-8621788Y-764539D01*
X-8626868Y-762000D01*
X-8634488Y-762000D01*
X-8634488Y-774700D02*
G01*
X-8634488Y-762000D01*
X-8667508Y-745236D02*
G01*
X-8614168Y-745236D01*
X-8667508Y-745236D02*
G01*
X-8614168Y-709676D01*
X-8667508Y-709676D02*
G01*
X-8614168Y-709676D01*
X-8667508Y-692912D02*
G01*
X-8614168Y-692912D01*
X-8667508Y-692912D02*
G01*
X-8667508Y-675131D01*
X-8664968Y-667512D01*
X-8659888Y-662431D01*
X-8654808Y-659892D01*
X-8647188Y-657352D01*
X-8634488Y-657352D01*
X-8626868Y-659892D01*
X-8621788Y-662431D01*
X-8616708Y-667512D01*
X-8614168Y-675131D01*
X-8614168Y-692912D01*
X-8667508Y-1054100D02*
G01*
X-8614168Y-1054100D01*
X-8667508Y-1054100D02*
G01*
X-8667508Y-1031239D01*
X-8664968Y-1023620D01*
X-8662428Y-1021079D01*
X-8657348Y-1018539D01*
X-8652268Y-1018539D01*
X-8647188Y-1021079D01*
X-8644648Y-1023620D01*
X-8642108Y-1031239D01*
X-8642108Y-1054100D01*
X-8642108Y-1036320D02*
G01*
X-8614168Y-1018539D01*
X-8659888Y-966215D02*
G01*
X-8664968Y-971295D01*
X-8667508Y-978915D01*
X-8667508Y-989076D01*
X-8664968Y-996695D01*
X-8659888Y-1001776D01*
X-8654808Y-1001776D01*
X-8649728Y-999236D01*
X-8647188Y-996695D01*
X-8644648Y-991615D01*
X-8639568Y-976376D01*
X-8637028Y-971295D01*
X-8634488Y-968755D01*
X-8629408Y-966215D01*
X-8621788Y-966215D01*
X-8616708Y-971295D01*
X-8614168Y-978915D01*
X-8614168Y-989076D01*
X-8616708Y-996695D01*
X-8621788Y-1001776D01*
X-8667508Y-931671D02*
G01*
X-8614168Y-931671D01*
X-8667508Y-949452D02*
G01*
X-8667508Y-913892D01*
X-8667508Y-1308100D02*
G01*
X-8614168Y-1287779D01*
X-8667508Y-1267460D02*
G01*
X-8614168Y-1287779D01*
X-8654808Y-1212595D02*
G01*
X-8659888Y-1215136D01*
X-8664968Y-1220215D01*
X-8667508Y-1225295D01*
X-8667508Y-1235455D01*
X-8664968Y-1240536D01*
X-8659888Y-1245615D01*
X-8654808Y-1248155D01*
X-8647188Y-1250695D01*
X-8634488Y-1250695D01*
X-8626868Y-1248155D01*
X-8621788Y-1245615D01*
X-8616708Y-1240536D01*
X-8614168Y-1235455D01*
X-8614168Y-1225295D01*
X-8616708Y-1220215D01*
X-8621788Y-1215136D01*
X-8626868Y-1212595D01*
X-8654808Y-1157731D02*
G01*
X-8659888Y-1160271D01*
X-8664968Y-1165352D01*
X-8667508Y-1170431D01*
X-8667508Y-1180592D01*
X-8664968Y-1185671D01*
X-8659888Y-1190752D01*
X-8654808Y-1193292D01*
X-8647188Y-1195831D01*
X-8634488Y-1195831D01*
X-8626868Y-1193292D01*
X-8621788Y-1190752D01*
X-8616708Y-1185671D01*
X-8614168Y-1180592D01*
X-8614168Y-1170431D01*
X-8616708Y-1165352D01*
X-8621788Y-1160271D01*
X-8626868Y-1157731D01*
X-8678684Y-1534413D02*
G01*
X-8605786Y-1562100D01*
X-8678684Y-1534413D02*
G01*
X-8605786Y-1506728D01*
X-8630170Y-1551686D02*
G01*
X-8630170Y-1517142D01*
X-8678684Y-1477010D02*
G01*
X-8678684Y-1438910D01*
X-8650998Y-1459484D01*
X-8650998Y-1449070D01*
X-8647442Y-1442212D01*
X-8643886Y-1438910D01*
X-8633472Y-1435354D01*
X-8626614Y-1435354D01*
X-8616200Y-1438910D01*
X-8609342Y-1445768D01*
X-8605786Y-1456181D01*
X-8605786Y-1466595D01*
X-8609342Y-1477010D01*
X-8612898Y-1480312D01*
X-8619756Y-1483868D01*
X-8678684Y-1788413D02*
G01*
X-8605786Y-1816100D01*
X-8678684Y-1788413D02*
G01*
X-8605786Y-1760728D01*
X-8630170Y-1805686D02*
G01*
X-8630170Y-1771142D01*
X-8661158Y-1734312D02*
G01*
X-8664714Y-1734312D01*
X-8671572Y-1731010D01*
X-8675128Y-1727454D01*
X-8678684Y-1720595D01*
X-8678684Y-1706626D01*
X-8675128Y-1699768D01*
X-8671572Y-1696212D01*
X-8664714Y-1692910D01*
X-8657856Y-1692910D01*
X-8650998Y-1696212D01*
X-8640584Y-1703070D01*
X-8605786Y-1737868D01*
X-8605786Y-1689354D01*
X-8678684Y-2017013D02*
G01*
X-8605786Y-2044700D01*
X-8678684Y-2017013D02*
G01*
X-8605786Y-1989328D01*
X-8630170Y-2034286D02*
G01*
X-8630170Y-1999742D01*
X-8664714Y-1966468D02*
G01*
X-8668270Y-1959610D01*
X-8678684Y-1949195D01*
X-8605786Y-1949195D01*
X-8678684Y-2271013D02*
G01*
X-8605786Y-2298700D01*
X-8678684Y-2271013D02*
G01*
X-8605786Y-2243328D01*
X-8630170Y-2288286D02*
G01*
X-8630170Y-2253742D01*
X-8678684Y-2199639D02*
G01*
X-8675128Y-2210054D01*
X-8664714Y-2216912D01*
X-8647442Y-2220468D01*
X-8637028Y-2220468D01*
X-8619756Y-2216912D01*
X-8609342Y-2210054D01*
X-8605786Y-2199639D01*
X-8605786Y-2192781D01*
X-8609342Y-2182368D01*
X-8619756Y-2175510D01*
X-8637028Y-2171954D01*
X-8647442Y-2171954D01*
X-8664714Y-2175510D01*
X-8675128Y-2182368D01*
X-8678684Y-2192781D01*
X-8678684Y-2199639D01*
X-8664714Y-2552700D02*
G01*
X-8668270Y-2545842D01*
X-8678684Y-2535428D01*
X-8605786Y-2535428D01*
X-8678684Y-2470912D02*
G01*
X-8678684Y-2505710D01*
X-8647442Y-2509012D01*
X-8650998Y-2505710D01*
X-8654300Y-2495295D01*
X-8654300Y-2484881D01*
X-8650998Y-2474468D01*
X-8643886Y-2467610D01*
X-8633472Y-2464054D01*
X-8626614Y-2464054D01*
X-8616200Y-2467610D01*
X-8609342Y-2474468D01*
X-8605786Y-2484881D01*
X-8605786Y-2495295D01*
X-8609342Y-2505710D01*
X-8612898Y-2509012D01*
X-8619756Y-2512568D01*
X-8664714Y-2806700D02*
G01*
X-8668270Y-2799842D01*
X-8678684Y-2789428D01*
X-8605786Y-2789428D01*
X-8678684Y-2731770D02*
G01*
X-8630170Y-2766568D01*
X-8630170Y-2714497D01*
X-8678684Y-2731770D02*
G01*
X-8605786Y-2731770D01*
X-8664714Y-3086100D02*
G01*
X-8668270Y-3079242D01*
X-8678684Y-3068828D01*
X-8605786Y-3068828D01*
X-8668270Y-3004312D02*
G01*
X-8675128Y-3007868D01*
X-8678684Y-3018281D01*
X-8678684Y-3025139D01*
X-8675128Y-3035554D01*
X-8664714Y-3042412D01*
X-8647442Y-3045968D01*
X-8630170Y-3045968D01*
X-8616200Y-3042412D01*
X-8609342Y-3035554D01*
X-8605786Y-3025139D01*
X-8605786Y-3021584D01*
X-8609342Y-3011170D01*
X-8616200Y-3004312D01*
X-8626614Y-3001010D01*
X-8630170Y-3001010D01*
X-8640584Y-3004312D01*
X-8647442Y-3011170D01*
X-8650998Y-3021584D01*
X-8650998Y-3025139D01*
X-8647442Y-3035554D01*
X-8640584Y-3042412D01*
X-8630170Y-3045968D01*
X-8664714Y-3314700D02*
G01*
X-8668270Y-3307842D01*
X-8678684Y-3297428D01*
X-8605786Y-3297428D01*
X-8678684Y-3253739D02*
G01*
X-8675128Y-3264154D01*
X-8664714Y-3271012D01*
X-8647442Y-3274568D01*
X-8637028Y-3274568D01*
X-8619756Y-3271012D01*
X-8609342Y-3264154D01*
X-8605786Y-3253739D01*
X-8605786Y-3246881D01*
X-8609342Y-3236468D01*
X-8619756Y-3229610D01*
X-8637028Y-3226054D01*
X-8647442Y-3226054D01*
X-8664714Y-3229610D01*
X-8675128Y-3236468D01*
X-8678684Y-3246881D01*
X-8678684Y-3253739D01*
X-9385312Y-4305300D02*
G01*
X-9494278Y-4305300D01*
X-9385312Y-4305300D02*
G01*
X-9385312Y-4352036D01*
X-9390392Y-4367529D01*
X-9395726Y-4372863D01*
X-9406140Y-4377944D01*
X-9416554Y-4377944D01*
X-9426968Y-4372863D01*
X-9432048Y-4367529D01*
X-9437128Y-4352036D01*
X-9437128Y-4305300D01*
X-9437128Y-4341621D02*
G01*
X-9494278Y-4377944D01*
X-9406140Y-4412234D02*
G01*
X-9400806Y-4422647D01*
X-9385312Y-4438395D01*
X-9494278Y-4438395D01*
X-8978912Y-4305300D02*
G01*
X-9087878Y-4305300D01*
X-8978912Y-4305300D02*
G01*
X-8978912Y-4352036D01*
X-8983992Y-4367529D01*
X-8989326Y-4372863D01*
X-8999740Y-4377944D01*
X-9010154Y-4377944D01*
X-9020568Y-4372863D01*
X-9025648Y-4367529D01*
X-9030728Y-4352036D01*
X-9030728Y-4305300D01*
X-9030728Y-4341621D02*
G01*
X-9087878Y-4377944D01*
X-9004820Y-4417568D02*
G01*
X-8999740Y-4417568D01*
X-8989326Y-4422647D01*
X-8983992Y-4427981D01*
X-8978912Y-4438395D01*
X-8978912Y-4458970D01*
X-8983992Y-4469384D01*
X-8989326Y-4474718D01*
X-8999740Y-4479797D01*
X-9010154Y-4479797D01*
X-9020568Y-4474718D01*
X-9036062Y-4464304D01*
X-9087878Y-4412234D01*
X-9087878Y-4485131D01*
X-8597912Y-4305300D02*
G01*
X-8706878Y-4305300D01*
X-8597912Y-4305300D02*
G01*
X-8597912Y-4352036D01*
X-8602992Y-4367529D01*
X-8608326Y-4372863D01*
X-8618740Y-4377944D01*
X-8629154Y-4377944D01*
X-8639568Y-4372863D01*
X-8644648Y-4367529D01*
X-8649728Y-4352036D01*
X-8649728Y-4305300D01*
X-8649728Y-4341621D02*
G01*
X-8706878Y-4377944D01*
X-8597912Y-4422647D02*
G01*
X-8597912Y-4479797D01*
X-8639568Y-4448810D01*
X-8639568Y-4464304D01*
X-8644648Y-4474718D01*
X-8649728Y-4479797D01*
X-8665476Y-4485131D01*
X-8675890Y-4485131D01*
X-8691384Y-4479797D01*
X-8701798Y-4469384D01*
X-8706878Y-4453889D01*
X-8706878Y-4438395D01*
X-8701798Y-4422647D01*
X-8696718Y-4417568D01*
X-8686304Y-4412234D01*
X-9319221Y-7732013D02*
G01*
X-9309061Y-7742428D01*
X-9293313Y-7747762D01*
X-9272485Y-7747762D01*
X-9256991Y-7742428D01*
X-9246577Y-7732013D01*
X-9246577Y-7721600D01*
X-9251911Y-7711186D01*
X-9256991Y-7706105D01*
X-9267405Y-7700771D01*
X-9298647Y-7690612D01*
X-9309061Y-7685278D01*
X-9314141Y-7680197D01*
X-9319221Y-7669784D01*
X-9319221Y-7654036D01*
X-9309061Y-7643621D01*
X-9293313Y-7638542D01*
X-9272485Y-7638542D01*
X-9256991Y-7643621D01*
X-9246577Y-7654036D01*
X-9353511Y-7747762D02*
G01*
X-9379673Y-7638542D01*
X-9405581Y-7747762D02*
G01*
X-9379673Y-7638542D01*
X-9405581Y-7747762D02*
G01*
X-9431489Y-7638542D01*
X-9457651Y-7747762D02*
G01*
X-9431489Y-7638542D01*
X-9497021Y-7721600D02*
G01*
X-9497021Y-7726934D01*
X-9502101Y-7737347D01*
X-9507435Y-7742428D01*
X-9517849Y-7747762D01*
X-9538677Y-7747762D01*
X-9549091Y-7742428D01*
X-9554171Y-7737347D01*
X-9559251Y-7726934D01*
X-9559251Y-7716520D01*
X-9554171Y-7706105D01*
X-9543757Y-7690612D01*
X-9491941Y-7638542D01*
X-9564585Y-7638542D01*
D11*
X-7883431Y-1312197D02*
G01*
X-7883431Y-872197D01*
X-7663426Y-1312197D02*
G01*
X-7663426Y-872197D01*
X-7883431Y-1312197D02*
G01*
X-7663426Y-1312197D01*
X-7883431Y-872197D02*
G01*
X-7663426Y-872197D01*
X-7883431Y-1218260D02*
G01*
X-7663426Y-1218260D01*
X-5940331Y-1312197D02*
G01*
X-5940331Y-872197D01*
X-5720326Y-1312197D02*
G01*
X-5720326Y-872197D01*
X-5940331Y-1312197D02*
G01*
X-5720326Y-1312197D01*
X-5940331Y-872197D02*
G01*
X-5720326Y-872197D01*
X-5940331Y-1218260D02*
G01*
X-5720326Y-1218260D01*
X-3984531Y-1312197D02*
G01*
X-3984531Y-872197D01*
X-3764526Y-1312197D02*
G01*
X-3764526Y-872197D01*
X-3984531Y-1312197D02*
G01*
X-3764526Y-1312197D01*
X-3984531Y-872197D02*
G01*
X-3764526Y-872197D01*
X-3984531Y-1218260D02*
G01*
X-3764526Y-1218260D01*
X-2028731Y-1312197D02*
G01*
X-2028731Y-872197D01*
X-1808726Y-1312197D02*
G01*
X-1808726Y-872197D01*
X-2028731Y-1312197D02*
G01*
X-1808726Y-1312197D01*
X-2028731Y-872197D02*
G01*
X-1808726Y-872197D01*
X-2028731Y-1218260D02*
G01*
X-1808726Y-1218260D01*
X-7883431Y-3267997D02*
G01*
X-7883431Y-2827997D01*
X-7663426Y-3267997D02*
G01*
X-7663426Y-2827997D01*
X-7883431Y-3267997D02*
G01*
X-7663426Y-3267997D01*
X-7883431Y-2827997D02*
G01*
X-7663426Y-2827997D01*
X-7883431Y-3174060D02*
G01*
X-7663426Y-3174060D01*
X-5940331Y-3267997D02*
G01*
X-5940331Y-2827997D01*
X-5720326Y-3267997D02*
G01*
X-5720326Y-2827997D01*
X-5940331Y-3267997D02*
G01*
X-5720326Y-3267997D01*
X-5940331Y-2827997D02*
G01*
X-5720326Y-2827997D01*
X-5940331Y-3174060D02*
G01*
X-5720326Y-3174060D01*
X-3984531Y-3267997D02*
G01*
X-3984531Y-2827997D01*
X-3764526Y-3267997D02*
G01*
X-3764526Y-2827997D01*
X-3984531Y-3267997D02*
G01*
X-3764526Y-3267997D01*
X-3984531Y-2827997D02*
G01*
X-3764526Y-2827997D01*
X-3984531Y-3174060D02*
G01*
X-3764526Y-3174060D01*
X-2028731Y-3267997D02*
G01*
X-2028731Y-2827997D01*
X-1808726Y-3267997D02*
G01*
X-1808726Y-2827997D01*
X-2028731Y-3267997D02*
G01*
X-1808726Y-3267997D01*
X-2028731Y-2827997D02*
G01*
X-1808726Y-2827997D01*
X-2028731Y-3174060D02*
G01*
X-1808726Y-3174060D01*
X-7870731Y-5236497D02*
G01*
X-7870731Y-4796497D01*
X-7650726Y-5236497D02*
G01*
X-7650726Y-4796497D01*
X-7870731Y-5236497D02*
G01*
X-7650726Y-5236497D01*
X-7870731Y-4796497D02*
G01*
X-7650726Y-4796497D01*
X-7870731Y-5142560D02*
G01*
X-7650726Y-5142560D01*
X-5940331Y-5236497D02*
G01*
X-5940331Y-4796497D01*
X-5720326Y-5236497D02*
G01*
X-5720326Y-4796497D01*
X-5940331Y-5236497D02*
G01*
X-5720326Y-5236497D01*
X-5940331Y-4796497D02*
G01*
X-5720326Y-4796497D01*
X-5940331Y-5142560D02*
G01*
X-5720326Y-5142560D01*
X-3984531Y-5223797D02*
G01*
X-3984531Y-4783797D01*
X-3764526Y-5223797D02*
G01*
X-3764526Y-4783797D01*
X-3984531Y-5223797D02*
G01*
X-3764526Y-5223797D01*
X-3984531Y-4783797D02*
G01*
X-3764526Y-4783797D01*
X-3984531Y-5129860D02*
G01*
X-3764526Y-5129860D01*
X-2028731Y-5236497D02*
G01*
X-2028731Y-4796497D01*
X-1808726Y-5236497D02*
G01*
X-1808726Y-4796497D01*
X-2028731Y-5236497D02*
G01*
X-1808726Y-5236497D01*
X-2028731Y-4796497D02*
G01*
X-1808726Y-4796497D01*
X-2028731Y-5142560D02*
G01*
X-1808726Y-5142560D01*
X-7870731Y-7192297D02*
G01*
X-7870731Y-6752297D01*
X-7650726Y-7192297D02*
G01*
X-7650726Y-6752297D01*
X-7870731Y-7192297D02*
G01*
X-7650726Y-7192297D01*
X-7870731Y-6752297D02*
G01*
X-7650726Y-6752297D01*
X-7870731Y-7098360D02*
G01*
X-7650726Y-7098360D01*
X-5940331Y-7192297D02*
G01*
X-5940331Y-6752297D01*
X-5720326Y-7192297D02*
G01*
X-5720326Y-6752297D01*
X-5940331Y-7192297D02*
G01*
X-5720326Y-7192297D01*
X-5940331Y-6752297D02*
G01*
X-5720326Y-6752297D01*
X-5940331Y-7098360D02*
G01*
X-5720326Y-7098360D01*
X-3984531Y-7179597D02*
G01*
X-3984531Y-6739597D01*
X-3764526Y-7179597D02*
G01*
X-3764526Y-6739597D01*
X-3984531Y-7179597D02*
G01*
X-3764526Y-7179597D01*
X-3984531Y-6739597D02*
G01*
X-3764526Y-6739597D01*
X-3984531Y-7085660D02*
G01*
X-3764526Y-7085660D01*
X-2028731Y-7192297D02*
G01*
X-2028731Y-6752297D01*
X-1808726Y-7192297D02*
G01*
X-1808726Y-6752297D01*
X-2028731Y-7192297D02*
G01*
X-1808726Y-7192297D01*
X-2028731Y-6752297D02*
G01*
X-1808726Y-6752297D01*
X-2028731Y-7098360D02*
G01*
X-1808726Y-7098360D01*
X-9559048Y-5171439D02*
G01*
X-9559048Y-5369560D01*
X-7443228Y-571500D02*
G01*
X-7443228Y-317500D01*
X-7189228Y-317500D01*
X-7443228Y-1333500D02*
G01*
X-7443228Y-1587500D01*
X-7189228Y-1587500D01*
X-6427228Y-1587500D02*
G01*
X-6173228Y-1587500D01*
X-6173228Y-1333500D01*
X-6173228Y-571500D02*
G01*
X-6173228Y-317500D01*
X-6427228Y-317500D01*
X-5487428Y-571500D02*
G01*
X-5487428Y-317500D01*
X-5233428Y-317500D01*
X-5487428Y-1333500D02*
G01*
X-5487428Y-1587500D01*
X-5233428Y-1587500D01*
X-4471428Y-1587500D02*
G01*
X-4217428Y-1587500D01*
X-4217428Y-1333500D01*
X-4217428Y-571500D02*
G01*
X-4217428Y-317500D01*
X-4471428Y-317500D01*
X-3531628Y-571500D02*
G01*
X-3531628Y-317500D01*
X-3277628Y-317500D01*
X-3531628Y-1333500D02*
G01*
X-3531628Y-1587500D01*
X-3277628Y-1587500D01*
X-2515628Y-1587500D02*
G01*
X-2261628Y-1587500D01*
X-2261628Y-1333500D01*
X-2261628Y-571500D02*
G01*
X-2261628Y-317500D01*
X-2515628Y-317500D01*
X-1575828Y-571500D02*
G01*
X-1575828Y-317500D01*
X-1321828Y-317500D01*
X-1575828Y-1333500D02*
G01*
X-1575828Y-1587500D01*
X-1321828Y-1587500D01*
X-559828Y-1587500D02*
G01*
X-305828Y-1587500D01*
X-305828Y-1333500D01*
X-305828Y-571500D02*
G01*
X-305828Y-317500D01*
X-559828Y-317500D01*
X-7443228Y-2527300D02*
G01*
X-7443228Y-2273300D01*
X-7189228Y-2273300D01*
X-7443228Y-3289300D02*
G01*
X-7443228Y-3543300D01*
X-7189228Y-3543300D01*
X-6427228Y-3543300D02*
G01*
X-6173228Y-3543300D01*
X-6173228Y-3289300D01*
X-6173228Y-2527300D02*
G01*
X-6173228Y-2273300D01*
X-6427228Y-2273300D01*
X-5487428Y-2527300D02*
G01*
X-5487428Y-2273300D01*
X-5233428Y-2273300D01*
X-5487428Y-3289300D02*
G01*
X-5487428Y-3543300D01*
X-5233428Y-3543300D01*
X-4471428Y-3543300D02*
G01*
X-4217428Y-3543300D01*
X-4217428Y-3289300D01*
X-4217428Y-2527300D02*
G01*
X-4217428Y-2273300D01*
X-4471428Y-2273300D01*
X-3531628Y-2527300D02*
G01*
X-3531628Y-2273300D01*
X-3277628Y-2273300D01*
X-3531628Y-3289300D02*
G01*
X-3531628Y-3543300D01*
X-3277628Y-3543300D01*
X-2515628Y-3543300D02*
G01*
X-2261628Y-3543300D01*
X-2261628Y-3289300D01*
X-2261628Y-2527300D02*
G01*
X-2261628Y-2273300D01*
X-2515628Y-2273300D01*
X-1575828Y-2527300D02*
G01*
X-1575828Y-2273300D01*
X-1321828Y-2273300D01*
X-1575828Y-3289300D02*
G01*
X-1575828Y-3543300D01*
X-1321828Y-3543300D01*
X-559828Y-3543300D02*
G01*
X-305828Y-3543300D01*
X-305828Y-3289300D01*
X-305828Y-2527300D02*
G01*
X-305828Y-2273300D01*
X-559828Y-2273300D01*
X-7443228Y-4483100D02*
G01*
X-7443228Y-4229100D01*
X-7189228Y-4229100D01*
X-7443228Y-5245100D02*
G01*
X-7443228Y-5499100D01*
X-7189228Y-5499100D01*
X-6427228Y-5499100D02*
G01*
X-6173228Y-5499100D01*
X-6173228Y-5245100D01*
X-6173228Y-4483100D02*
G01*
X-6173228Y-4229100D01*
X-6427228Y-4229100D01*
X-5487428Y-4483100D02*
G01*
X-5487428Y-4229100D01*
X-5233428Y-4229100D01*
X-5487428Y-5245100D02*
G01*
X-5487428Y-5499100D01*
X-5233428Y-5499100D01*
X-4471428Y-5499100D02*
G01*
X-4217428Y-5499100D01*
X-4217428Y-5245100D01*
X-4217428Y-4483100D02*
G01*
X-4217428Y-4229100D01*
X-4471428Y-4229100D01*
X-3531628Y-4483100D02*
G01*
X-3531628Y-4229100D01*
X-3277628Y-4229100D01*
X-3531628Y-5245100D02*
G01*
X-3531628Y-5499100D01*
X-3277628Y-5499100D01*
X-2515628Y-5499100D02*
G01*
X-2261628Y-5499100D01*
X-2261628Y-5245100D01*
X-2261628Y-4483100D02*
G01*
X-2261628Y-4229100D01*
X-2515628Y-4229100D01*
X-1575828Y-4483100D02*
G01*
X-1575828Y-4229100D01*
X-1321828Y-4229100D01*
X-1575828Y-5245100D02*
G01*
X-1575828Y-5499100D01*
X-1321828Y-5499100D01*
X-559828Y-5499100D02*
G01*
X-305828Y-5499100D01*
X-305828Y-5245100D01*
X-305828Y-4483100D02*
G01*
X-305828Y-4229100D01*
X-559828Y-4229100D01*
X-7443228Y-6438900D02*
G01*
X-7443228Y-6184900D01*
X-7189228Y-6184900D01*
X-7443228Y-7200900D02*
G01*
X-7443228Y-7454900D01*
X-7189228Y-7454900D01*
X-6427228Y-7454900D02*
G01*
X-6173228Y-7454900D01*
X-6173228Y-7200900D01*
X-6173228Y-6438900D02*
G01*
X-6173228Y-6184900D01*
X-6427228Y-6184900D01*
X-5487428Y-6438900D02*
G01*
X-5487428Y-6184900D01*
X-5233428Y-6184900D01*
X-5487428Y-7200900D02*
G01*
X-5487428Y-7454900D01*
X-5233428Y-7454900D01*
X-4471428Y-7454900D02*
G01*
X-4217428Y-7454900D01*
X-4217428Y-7200900D01*
X-4217428Y-6438900D02*
G01*
X-4217428Y-6184900D01*
X-4471428Y-6184900D01*
X-3531628Y-6438900D02*
G01*
X-3531628Y-6184900D01*
X-3277628Y-6184900D01*
X-3531628Y-7200900D02*
G01*
X-3531628Y-7454900D01*
X-3277628Y-7454900D01*
X-2515628Y-7454900D02*
G01*
X-2261628Y-7454900D01*
X-2261628Y-7200900D01*
X-2261628Y-6438900D02*
G01*
X-2261628Y-6184900D01*
X-2515628Y-6184900D01*
X-1575828Y-6438900D02*
G01*
X-1575828Y-6184900D01*
X-1321828Y-6184900D01*
X-1575828Y-7200900D02*
G01*
X-1575828Y-7454900D01*
X-1321828Y-7454900D01*
X-559828Y-7454900D02*
G01*
X-305828Y-7454900D01*
X-305828Y-7200900D01*
X-305828Y-6438900D02*
G01*
X-305828Y-6184900D01*
X-559828Y-6184900D01*
D18*
X-10084828Y-88900D02*
G01*
X-10084828Y-3390900D01*
X-8306828Y-3390900D01*
X-8306828Y-88900D01*
X-10084828Y-88900D01*
D11*
X-9741928Y-3987800D02*
G01*
X-9564128Y-3987800D01*
X-9538728Y-4013200D02*
G01*
X-9538728Y-4051300D01*
X-9551428Y-4064000D02*
G01*
X-9538728Y-4051300D01*
X-9767328Y-4013200D02*
G01*
X-9767328Y-4051300D01*
X-9754628Y-4064000D02*
G01*
X-9767328Y-4051300D01*
X-9551428Y-4546600D02*
G01*
X-9538728Y-4559300D01*
X-9551428Y-4546600D02*
G01*
X-9551428Y-4064000D01*
X-9754628Y-4546600D02*
G01*
X-9767328Y-4559300D01*
X-9754628Y-4546600D02*
G01*
X-9754628Y-4064000D01*
X-9538728Y-4597400D02*
G01*
X-9538728Y-4559300D01*
X-9767328Y-4597400D02*
G01*
X-9767328Y-4559300D01*
X-9741928Y-4622800D02*
G01*
X-9564128Y-4622800D01*
X-9335528Y-3987800D02*
G01*
X-9157728Y-3987800D01*
X-9132328Y-4013200D02*
G01*
X-9132328Y-4051300D01*
X-9145028Y-4064000D02*
G01*
X-9132328Y-4051300D01*
X-9360928Y-4013200D02*
G01*
X-9360928Y-4051300D01*
X-9348228Y-4064000D02*
G01*
X-9360928Y-4051300D01*
X-9145028Y-4546600D02*
G01*
X-9132328Y-4559300D01*
X-9145028Y-4546600D02*
G01*
X-9145028Y-4064000D01*
X-9348228Y-4546600D02*
G01*
X-9360928Y-4559300D01*
X-9348228Y-4546600D02*
G01*
X-9348228Y-4064000D01*
X-9132328Y-4597400D02*
G01*
X-9132328Y-4559300D01*
X-9360928Y-4597400D02*
G01*
X-9360928Y-4559300D01*
X-9335528Y-4622800D02*
G01*
X-9157728Y-4622800D01*
X-8954528Y-3987800D02*
G01*
X-8776728Y-3987800D01*
X-8751328Y-4013200D02*
G01*
X-8751328Y-4051300D01*
X-8764028Y-4064000D02*
G01*
X-8751328Y-4051300D01*
X-8979928Y-4013200D02*
G01*
X-8979928Y-4051300D01*
X-8967228Y-4064000D02*
G01*
X-8979928Y-4051300D01*
X-8764028Y-4546600D02*
G01*
X-8751328Y-4559300D01*
X-8764028Y-4546600D02*
G01*
X-8764028Y-4064000D01*
X-8967228Y-4546600D02*
G01*
X-8979928Y-4559300D01*
X-8967228Y-4546600D02*
G01*
X-8967228Y-4064000D01*
X-8751328Y-4597400D02*
G01*
X-8751328Y-4559300D01*
X-8979928Y-4597400D02*
G01*
X-8979928Y-4559300D01*
X-8954528Y-4622800D02*
G01*
X-8776728Y-4622800D01*
X-8682004Y-7394221D02*
G01*
X-9862002Y-7394219D01*
X-9862002Y-7394221D02*
G01*
X-9862002Y-6194221D01*
X-9862002Y-6194219D02*
G01*
X-8682004Y-6194221D01*
X-8682004Y-6194219D02*
G01*
X-8682004Y-7394219D01*
X-8992603Y-6895820D02*
G01*
X-9551403Y-6895820D01*
X-8687803Y-6997420D02*
G01*
X-8891003Y-6997420D01*
X-8687803Y-6591020D02*
G01*
X-8891003Y-6591020D01*
X-9653003Y-6997420D02*
G01*
X-9856203Y-6997420D01*
X-9653003Y-6591020D02*
G01*
X-9856203Y-6591020D01*
G75*
G01*
X-9560128Y-5170500D02*
G02*
X-9560128Y-5370500I249999J-100000D01*
G75*
G01*
X-9564129Y-3987800D02*
G02*
X-9538729Y-4013200I0J-25400D01*
G75*
G01*
X-9741929Y-3987800D02*
G03*
X-9767329Y-4013200I0J-25400D01*
G75*
G01*
X-9767329Y-4597400D02*
G03*
X-9741929Y-4622800I25400J0D01*
G75*
G01*
X-9538729Y-4597400D02*
G02*
X-9564129Y-4622800I-25400J0D01*
G75*
G01*
X-9157729Y-3987800D02*
G02*
X-9132329Y-4013200I0J-25400D01*
G75*
G01*
X-9335529Y-3987800D02*
G03*
X-9360929Y-4013200I0J-25400D01*
G75*
G01*
X-9360929Y-4597400D02*
G03*
X-9335529Y-4622800I25400J0D01*
G75*
G01*
X-9132329Y-4597400D02*
G02*
X-9157729Y-4622800I-25400J0D01*
G75*
G01*
X-8776729Y-3987800D02*
G02*
X-8751329Y-4013200I0J-25400D01*
G75*
G01*
X-8954529Y-3987800D02*
G03*
X-8979929Y-4013200I0J-25400D01*
G75*
G01*
X-8979929Y-4597400D02*
G03*
X-8954529Y-4622800I25400J0D01*
G75*
G01*
X-8751329Y-4597400D02*
G02*
X-8776729Y-4622800I-25400J0D01*
G75*
G01*
X-9449803Y-6895821D02*
G02*
X-9094203Y-6895821I177800J99404D01*
G75*
G01
X-9856229Y-2501900D02*
G03X-9856229Y-2501900I-101600J0D01*
G75*
G01
X-9856229Y-2247900D02*
G03X-9856229Y-2247900I-101600J0D01*
G75*
G01
X-9856229Y-1739900D02*
G03X-9856229Y-1739900I-101600J0D01*
G75*
G01
X-9856229Y-3263900D02*
G03X-9856229Y-3263900I-101600J0D01*
G75*
G01
X-8332229Y-3263900D02*
G03X-8332229Y-3263900I-101600J0D01*
G75*
G01
X-8839467Y-6794221D02*
G03X-8839467Y-6794221I-432537J0D01*
G75*
G01
X-8936723Y-6794221D02*
G03X-8936723Y-6794221I-335280J0D01*
G75*
G01
X-8967203Y-6794221D02*
G03X-8967203Y-6794221I-304800J0D01*
M02*
