G04 Layer: BottomSilkLayer*
G04 EasyEDA v6.4.20.6, 2021-07-27T21:22:35+10:00*
G04 5f3de9c6558747c6be1615df3866fddb,ebe80986956c49fa8a04bea1b3a7cd6c,10*
G04 Gerber Generator version 0.2*
G04 Scale: 100 percent, Rotated: No, Reflected: No *
G04 Dimensions in millimeters *
G04 leading zeros omitted , absolute positions ,4 integer and 5 decimal *
%FSLAX45Y45*%
%MOMM*%

%ADD11C,0.2540*%
%ADD20C,0.1524*%

%LPD*%
D20*
X-9857752Y-2912363D02*
G01*
X-9857752Y-2967989D01*
X-9854450Y-2978150D01*
X-9850894Y-2981705D01*
X-9844036Y-2985262D01*
X-9837178Y-2985262D01*
X-9830066Y-2981705D01*
X-9826764Y-2978150D01*
X-9823208Y-2967989D01*
X-9823208Y-2960878D01*
X-9880612Y-2912363D02*
G01*
X-9880612Y-2985262D01*
X-9880612Y-2912363D02*
G01*
X-9911854Y-2912363D01*
X-9922268Y-2915920D01*
X-9925824Y-2919476D01*
X-9929126Y-2926334D01*
X-9929126Y-2936747D01*
X-9925824Y-2943605D01*
X-9922268Y-2947162D01*
X-9911854Y-2950463D01*
X-9880612Y-2950463D01*
X-10000500Y-2912363D02*
G01*
X-9965956Y-2985262D01*
X-9951986Y-2912363D02*
G01*
X-10000500Y-2912363D01*
D11*
X-10084828Y-2819400D02*
G01*
X-10021328Y-2882900D01*
X-10084828Y-2946400D01*
X-10084828Y-3073400D01*
X-10021328Y-3136900D01*
X-10084828Y-3200400D01*
X-10084828Y-3327400D01*
X-10021328Y-3390900D01*
X-9894328Y-3390900D01*
X-9830828Y-3327400D01*
X-9830828Y-3200400D01*
X-9894328Y-3136900D01*
X-9830828Y-3073400D01*
X-9830828Y-2946400D01*
X-9894328Y-2882900D01*
X-9830828Y-2819400D01*
X-9830828Y-2692400D01*
X-9894328Y-2628900D01*
X-9830828Y-2565400D01*
X-9830828Y-2438400D01*
X-9894328Y-2374900D01*
X-9830828Y-2311400D01*
X-9830828Y-2184400D01*
X-9894328Y-2120900D01*
X-9830828Y-2057400D01*
X-9830828Y-1930400D01*
X-9894328Y-1866900D01*
X-9830828Y-1803400D01*
X-9830828Y-1676400D01*
X-9894328Y-1612900D01*
X-9830828Y-1549400D01*
X-9830828Y-1422400D01*
X-9894328Y-1358900D01*
X-9830828Y-1295400D01*
X-9830828Y-1168400D01*
X-9894328Y-1104900D01*
X-9830828Y-1041400D01*
X-9830828Y-914400D01*
X-9894328Y-850900D01*
X-9830828Y-787400D01*
X-9830828Y-660400D01*
X-9894328Y-596900D01*
X-9830828Y-533400D01*
X-9830828Y-406400D01*
X-9894328Y-342900D01*
X-10021328Y-342900D01*
X-10084828Y-406400D01*
X-10084828Y-533400D01*
X-10021328Y-596900D01*
X-10084828Y-660400D01*
X-10084828Y-787400D01*
X-10021328Y-850900D01*
X-10084828Y-914400D01*
X-10084828Y-1041400D01*
X-10021328Y-1104900D01*
X-10084828Y-1168400D01*
X-10084828Y-1295400D01*
X-10021328Y-1358900D01*
X-10084828Y-1422400D01*
X-10084828Y-1549400D01*
X-10021328Y-1612900D01*
X-10084828Y-1676400D01*
X-10084828Y-1803400D01*
X-10021328Y-1866900D01*
X-10084828Y-1930400D01*
X-10084828Y-2057400D01*
X-10021328Y-2120900D01*
X-10084828Y-2184400D01*
X-10084828Y-2311400D01*
X-10021328Y-2374900D01*
X-10084828Y-2438400D01*
X-10084828Y-2565400D01*
X-10021328Y-2628900D01*
X-10084828Y-2692400D01*
X-10084828Y-2819400D01*
X-8306828Y-914400D02*
G01*
X-8370328Y-850900D01*
X-8306828Y-787400D01*
X-8306828Y-660400D01*
X-8370328Y-596900D01*
X-8306828Y-533400D01*
X-8306828Y-406400D01*
X-8370328Y-342900D01*
X-8497328Y-342900D01*
X-8560828Y-406400D01*
X-8560828Y-533400D01*
X-8497328Y-596900D01*
X-8560828Y-660400D01*
X-8560828Y-787400D01*
X-8497328Y-850900D01*
X-8560828Y-914400D01*
X-8560828Y-1041400D01*
X-8497328Y-1104900D01*
X-8560828Y-1168400D01*
X-8560828Y-1295400D01*
X-8497328Y-1358900D01*
X-8560828Y-1422400D01*
X-8560828Y-1549400D01*
X-8497328Y-1612900D01*
X-8560828Y-1676400D01*
X-8560828Y-1803400D01*
X-8497328Y-1866900D01*
X-8560828Y-1930400D01*
X-8560828Y-2057400D01*
X-8497328Y-2120900D01*
X-8560828Y-2184400D01*
X-8560828Y-2311400D01*
X-8497328Y-2374900D01*
X-8560828Y-2438400D01*
X-8560828Y-2565400D01*
X-8497328Y-2628900D01*
X-8560828Y-2692400D01*
X-8560828Y-2819400D01*
X-8497328Y-2882900D01*
X-8560828Y-2946400D01*
X-8560828Y-3073400D01*
X-8497328Y-3136900D01*
X-8560828Y-3200400D01*
X-8560828Y-3327400D01*
X-8497328Y-3390900D01*
X-8370328Y-3390900D01*
X-8306828Y-3327400D01*
X-8306828Y-3200400D01*
X-8370328Y-3136900D01*
X-8306828Y-3073400D01*
X-8306828Y-2946400D01*
X-8370328Y-2882900D01*
X-8306828Y-2819400D01*
X-8306828Y-2692400D01*
X-8370328Y-2628900D01*
X-8306828Y-2565400D01*
X-8306828Y-2438400D01*
X-8370328Y-2374900D01*
X-8306828Y-2311400D01*
X-8306828Y-2184400D01*
X-8370328Y-2120900D01*
X-8306828Y-2057400D01*
X-8306828Y-1930400D01*
X-8370328Y-1866900D01*
X-8306828Y-1803400D01*
X-8306828Y-1676400D01*
X-8370328Y-1612900D01*
X-8306828Y-1549400D01*
X-8306828Y-1422400D01*
X-8370328Y-1358900D01*
X-8306828Y-1295400D01*
X-8306828Y-1168400D01*
X-8370328Y-1104900D01*
X-8306828Y-1041400D01*
X-8306828Y-914400D01*
M02*
