M48
METRIC,LZ,000.000
;FILE_FORMAT=3:3
;TYPE=PLATED
;Layer: Drill PTH
;EasyEDA v6.4.20.6, 2021-07-27T21:22:35+10:00
;5f3de9c6558747c6be1615df3866fddb,ebe80986956c49fa8a04bea1b3a7cd6c,10
;Gerber Generator version 0.2
;Holesize 1 = 0.762 mm
T01C0.762
;Holesize 2 = 0.813 mm
T02C0.813
;Holesize 3 = 1.000 mm
T03C1.000
;Holesize 4 = 1.016 mm
T04C1.016
;Holesize 5 = 1.301 mm
T05C1.301
;Holesize 6 = 1.499 mm
T06C1.499
;Holesize 7 = 1.501 mm
T07C1.501
%
G05
G90
T01
X-093736Y-052705
X-095006Y-052705
X-092466Y-052705
X-091196Y-052705
T02
X-096530Y-037973
X-096530Y-048133
X-092466Y-037973
X-092466Y-048133
X-088656Y-037973
X-088656Y-048133
T03
X-077734Y-006922
X-077734Y-014922
X-058303Y-006922
X-058303Y-014922
X-038745Y-006922
X-038745Y-014922
X-019187Y-006922
X-019187Y-014922
X-077734Y-026480
X-077734Y-034480
X-058303Y-026480
X-058303Y-034480
X-038745Y-026480
X-038745Y-034480
X-019187Y-026480
X-019187Y-034480
X-077607Y-046165
X-077607Y-054165
X-058303Y-046165
X-058303Y-054165
X-038745Y-046038
X-038745Y-054038
X-019187Y-046165
X-019187Y-054165
X-077607Y-065723
X-077607Y-073723
X-058303Y-065723
X-058303Y-073723
X-038745Y-065596
X-038745Y-073596
X-019187Y-065723
X-019187Y-073723
T04
X-099578Y-032639
X-099578Y-030099
X-099578Y-027559
X-099578Y-025019
X-099578Y-022479
X-099578Y-019939
X-099578Y-017399
X-099578Y-014859
X-099578Y-012319
X-099578Y-009779
X-099578Y-007239
X-099578Y-004699
X-084338Y-004699
X-084338Y-007239
X-084338Y-009779
X-084338Y-012319
X-084338Y-014859
X-084338Y-017399
X-084338Y-019939
X-084338Y-022479
X-084338Y-025019
X-084338Y-027559
X-084338Y-030099
X-084338Y-032639
T05
X-090180Y-060442
X-092720Y-060442
X-095260Y-060442
X-090180Y-074942
X-095260Y-074942
T06
X-071892Y-006985
X-065542Y-004445
X-052334Y-006985
X-045984Y-004445
X-032776Y-006985
X-026426Y-004445
X-013218Y-006985
X-006868Y-004445
X-071892Y-026543
X-065542Y-024003
X-052334Y-026543
X-045984Y-024003
X-032776Y-026543
X-026426Y-024003
X-013218Y-026543
X-006868Y-024003
X-071892Y-046101
X-065542Y-043561
X-052334Y-046101
X-045984Y-043561
X-032776Y-046101
X-026426Y-043561
X-013218Y-046101
X-006868Y-043561
X-071892Y-065659
X-065542Y-063119
X-052334Y-065659
X-045984Y-063119
X-032776Y-065659
X-026426Y-063119
X-013218Y-065659
X-006868Y-063119
T07
X-098220Y-067192G85X-098220Y-068692
X-087220Y-067192G85X-087220Y-068692
M30
