M48
METRIC,LZ,000.000
;FILE_FORMAT=3:3
;TYPE=NON_PLATED
;Layer: Drill NPTH
;EasyEDA v6.4.20.6, 2021-07-27T21:22:35+10:00
;5f3de9c6558747c6be1615df3866fddb,ebe80986956c49fa8a04bea1b3a7cd6c,10
;Gerber Generator version 0.2
;Holesize 1 = 1.702 mm
T01C1.702
;Holesize 2 = 3.400 mm
T02C3.400
;Holesize 3 = 3.988 mm
T03C3.988
%
G05
G90
T01
X-073162Y-009525
X-063002Y-009525
X-053604Y-009525
X-043444Y-009525
X-034046Y-009525
X-023886Y-009525
X-014488Y-009525
X-004328Y-009525
X-073162Y-029083
X-063002Y-029083
X-053604Y-029083
X-043444Y-029083
X-034046Y-029083
X-023886Y-029083
X-014488Y-029083
X-004328Y-029083
X-073162Y-048641
X-063002Y-048641
X-053604Y-048641
X-043444Y-048641
X-034046Y-048641
X-023886Y-048641
X-014488Y-048641
X-004328Y-048641
X-073162Y-068199
X-063002Y-068199
X-053604Y-068199
X-043444Y-068199
X-034046Y-068199
X-023886Y-068199
X-014488Y-068199
X-004328Y-068199
T02
X007000Y002000
X007000Y-080000
X-109000Y-080000
X-109000Y002000
T03
X-068082Y-009525
X-048524Y-009525
X-028966Y-009525
X-009408Y-009525
X-068082Y-029083
X-048524Y-029083
X-028966Y-029083
X-009408Y-029083
X-068082Y-048641
X-048524Y-048641
X-028966Y-048641
X-009408Y-048641
X-068082Y-068199
X-048524Y-068199
X-028966Y-068199
X-009408Y-068199
M30
